<?xml version="1.0" standalone="no"?>
<!DOCTYPE svg PUBLIC "-//W3C//DTD SVG 20010904//EN"
 "http://www.w3.org/TR/2001/REC-SVG-20010904/DTD/svg10.dtd">
<svg version="1.0" xmlns="http://www.w3.org/2000/svg"
 width="1280.000000pt" height="719.000000pt" viewBox="0 0 1280.000000 719.000000"
 preserveAspectRatio="xMidYMid meet">
<metadata>
Created by potrace 1.16, written by Peter Selinger 2001-2019
</metadata>
<g transform="translate(0.000000,719.000000) scale(0.100000,-0.100000)"
fill="#000000" stroke="none">
<path d="M0 6125 c0 -940 2 -1065 15 -1065 8 0 15 -5 15 -11 0 -6 -7 -9 -15
-5 -13 5 -15 -18 -15 -164 0 -167 0 -169 23 -173 l22 -4 -22 -2 c-22 -1 -23
-4 -23 -100 0 -71 4 -101 13 -104 9 -3 9 -7 0 -18 -8 -10 -12 -82 -12 -231
l-1 -216 27 -10 28 -10 -27 -1 -28 -1 0 -99 0 -99 55 -7 c30 -3 55 -10 55 -14
0 -4 -16 -5 -36 -3 -28 3 -35 1 -29 -8 6 -10 1 -12 -19 -8 -25 5 -26 3 -26
-38 l0 -43 41 -3 c32 -2 44 -8 50 -24 6 -17 4 -21 -9 -19 -79 16 -82 15 -82
-10 0 -14 7 -25 18 -28 16 -4 16 -5 0 -6 -14 -1 -18 -10 -18 -41 0 -49 4 -51
167 -58 25 -2 31 -6 30 -22 -1 -11 -7 -20 -15 -20 -7 0 -10 5 -7 10 3 6 2 10
-4 10 -5 0 -13 -5 -16 -10 -5 -8 -11 -7 -21 1 -17 14 -94 20 -94 7 0 -5 -9 -6
-20 -3 -14 5 -20 2 -20 -9 0 -9 3 -15 8 -15 36 6 62 -3 62 -21 0 -11 -4 -20
-10 -20 -5 0 -10 6 -10 13 0 7 -11 14 -25 15 -19 1 -25 -3 -25 -18 0 -16 7
-20 33 -21 28 -2 29 -2 6 -6 -30 -5 -39 -25 -39 -85 0 -32 3 -38 20 -38 17 0
19 -2 8 -14 -9 -10 -15 -11 -20 -2 -5 6 -8 2 -8 -11 0 -18 6 -23 25 -23 14 0
25 -5 25 -10 0 -6 -11 -8 -25 -4 -15 4 -25 2 -25 -4 0 -6 15 -13 33 -15 l32
-4 -32 -1 c-31 -2 -33 -4 -33 -41 0 -22 5 -42 13 -44 9 -4 9 -7 0 -14 -16 -11
-16 -163 -1 -163 7 0 7 -4 0 -13 -11 -13 -10 -81 3 -111 5 -12 3 -21 -6 -26
-7 -5 -11 -11 -9 -13 3 -3 147 -7 320 -10 173 -3 316 -6 318 -6 1 -1 2 -11 2
-22 0 -21 -3 -21 -87 -14 -49 4 -95 7 -103 6 -8 0 -113 -1 -232 -1 l-218 0 1
-98 c1 -53 4 -87 6 -76 5 26 39 35 132 32 41 -1 52 -3 29 -5 -33 -4 -38 -8
-38 -29 0 -21 4 -24 38 -24 28 -1 33 -3 20 -10 -16 -10 -58 -11 -91 -3 -15 4
-15 6 -2 19 23 24 18 44 -10 44 -18 0 -25 -5 -25 -19 0 -25 -28 -54 -46 -47
-11 4 -14 -16 -14 -104 l0 -110 598 1 c557 0 595 1 565 16 -32 16 -44 33 -23
33 6 0 10 -6 11 -12 0 -7 4 -3 9 9 8 20 17 23 60 23 43 0 52 -3 60 -22 5 -13
9 -17 9 -8 1 11 15 15 56 16 46 1 55 -2 53 -15 -2 -12 -18 -17 -68 -19 -36 -2
-69 -7 -74 -12 -6 -6 77 -9 215 -8 123 1 208 4 189 8 -36 8 -34 9 33 14 6 1
11 -5 9 -12 -1 -9 12 -12 48 -11 34 2 50 6 50 16 0 7 5 13 10 13 6 0 10 -6 10
-12 0 -10 134 -12 647 -10 407 2 649 7 651 13 3 6 9 5 18 -2 10 -8 169 -10
594 -8 319 2 580 1 580 -3 0 -5 -102 -8 -226 -8 -147 0 -223 -3 -219 -10 4 -6
-7 -10 -27 -9 -28 0 -30 2 -13 10 13 6 -135 7 -405 4 -234 -2 -620 -5 -857 -5
-316 0 -432 -3 -430 -11 1 -6 -4 -14 -12 -17 -10 -3 -12 0 -8 12 6 15 -17 16
-258 16 -170 0 -265 -4 -265 -10 0 -5 -7 -10 -16 -10 -9 0 -12 5 -8 12 5 8
-179 10 -757 5 -420 -4 -774 -7 -786 -7 -23 0 -23 -1 -23 -150 0 -93 4 -150
10 -150 6 0 10 7 10 15 0 8 8 15 18 16 11 1 9 4 -8 9 -24 8 -23 8 8 9 30 1 32
3 26 29 -4 15 -3 24 1 20 4 -4 16 2 26 13 10 12 22 18 27 15 5 -3 29 -2 53 3
l44 9 -57 1 c-31 1 -60 5 -63 11 -4 6 23 7 72 4 67 -5 75 -3 60 8 -16 12 -13
14 29 16 26 1 51 7 55 13 5 8 8 7 12 -2 4 -11 6 -11 6 -1 1 9 11 11 35 7 28
-6 36 -3 50 16 18 26 22 18 6 -12 -6 -11 -21 -19 -36 -19 -46 0 -20 -25 32
-31 27 -3 41 -7 32 -7 -10 -1 -18 -6 -18 -12 0 -14 12 -12 38 6 15 10 22 11
22 3 0 -8 4 -8 12 -1 7 5 56 10 108 10 l95 0 -87 -10 c-49 -6 -88 -14 -88 -19
0 -5 -13 -6 -30 -2 -23 4 -30 2 -30 -11 0 -9 -8 -16 -20 -16 -11 0 -20 -4 -20
-9 0 -6 20 -9 46 -7 25 1 47 -1 50 -6 3 -4 -6 -8 -20 -8 -14 0 -28 -4 -31 -10
-3 -5 -1 -10 5 -10 6 0 8 -5 5 -11 -4 -6 -13 -8 -21 -5 -8 3 -14 -1 -14 -9 0
-11 -8 -13 -32 -8 -29 6 -32 5 -20 -10 12 -14 8 -16 -35 -23 l-48 -8 40 -7
c22 -4 58 -8 80 -9 22 0 46 -4 53 -9 7 -4 -12 -6 -44 -3 -45 4 -59 1 -66 -12
-5 -9 -18 -16 -28 -16 -10 0 -21 -4 -24 -9 -3 -5 -21 -8 -38 -6 -18 1 -60 -2
-93 -6 -35 -5 -64 -4 -70 1 -7 6 -15 7 -18 4 -3 -3 -12 -2 -19 2 -7 5 -30 9
-50 10 -31 2 -38 -1 -38 -17 0 -13 7 -19 21 -19 13 0 18 -4 13 -11 -5 -9 1
-10 20 -5 17 4 26 2 26 -5 0 -8 4 -8 13 -2 15 12 87 17 87 6 0 -4 17 -7 37 -6
21 1 46 2 55 2 11 1 15 6 12 15 -4 10 2 14 20 12 14 0 26 -4 26 -8 0 -5 12 -8
28 -9 21 -1 15 -5 -28 -19 l-55 -18 75 3 c48 3 64 1 45 -3 l-30 -8 38 -5 c20
-3 41 -1 45 3 8 8 62 -12 62 -23 0 -3 -10 -11 -22 -17 -14 -6 -17 -11 -8 -11
8 0 24 6 34 14 12 9 23 11 31 5 6 -5 30 -13 53 -18 34 -8 46 -7 57 5 16 15 40
9 29 -8 -3 -5 -2 -9 3 -8 19 3 25 -2 14 -15 -9 -10 -8 -15 2 -19 16 -6 19 22
5 39 -6 8 3 13 32 16 23 2 44 0 46 -4 3 -4 -4 -8 -14 -8 -11 0 -25 -7 -32 -15
-10 -12 -10 -15 3 -15 8 0 17 4 19 10 2 5 27 7 61 3 62 -6 65 -20 6 -24 -24
-2 -35 -7 -32 -15 5 -13 55 -23 128 -25 l50 -2 -45 -7 c-25 -4 -57 -5 -72 -3
-17 3 -28 1 -28 -6 0 -6 12 -11 26 -11 23 0 24 -2 10 -15 -16 -16 -31 -20 -22
-6 3 4 -20 7 -52 6 -31 -2 -75 0 -97 4 -43 8 -68 4 -60 -9 3 -4 -4 -6 -15 -3
-11 3 -20 9 -20 14 0 5 -5 9 -11 9 -5 0 -7 -4 -4 -10 3 -5 0 -10 -7 -11 -7 0
-4 -4 7 -9 18 -8 18 -9 2 -9 -10 -1 -20 5 -23 13 -3 8 -13 12 -25 9 -10 -3
-16 -9 -13 -14 3 -5 0 -9 -5 -9 -15 0 -14 27 1 34 7 3 0 4 -17 3 -22 -1 -30
-7 -29 -19 1 -10 -4 -18 -12 -18 -22 0 -24 16 -3 38 27 30 14 28 -23 -3 -32
-27 -54 -31 -78 -14 -13 9 -13 10 0 8 26 -3 40 1 40 10 0 5 -17 5 -42 0 -61
-14 -73 -7 -33 19 19 13 40 22 47 19 8 -3 4 -9 -12 -15 -33 -14 -12 -15 27 -2
16 6 30 18 30 26 0 9 -4 11 -10 5 -5 -5 -27 -4 -55 4 -26 6 -56 8 -67 4 -15
-6 -10 -8 20 -9 34 -1 37 -3 18 -10 -13 -5 -23 -14 -23 -20 0 -5 -8 -10 -17
-10 -16 0 -16 2 -3 11 11 8 -2 9 -48 5 -71 -7 -85 8 -17 18 25 4 45 11 45 17
0 12 -17 11 -42 -2 -15 -8 -22 -8 -28 1 -9 15 -120 22 -120 8 0 -5 -5 -6 -10
-3 -6 4 -8 16 -5 28 2 12 2 16 -1 10 -3 -7 -17 -13 -30 -13 l-24 0 0 -170 0
-170 28 -1 c24 0 24 -1 7 -8 -11 -5 -23 -7 -26 -5 -4 2 -7 -28 -8 -66 -1 -51
2 -70 11 -70 9 0 10 -2 2 -8 -8 -4 -11 -38 -10 -92 1 -74 3 -85 18 -84 10 1
15 -3 12 -8 -3 -5 -12 -7 -18 -5 -9 4 -13 -7 -14 -33 -1 -29 3 -40 16 -43 16
-4 16 -5 0 -6 -10 0 -18 -6 -18 -12 0 -7 12 -10 29 -7 21 3 28 1 24 -9 -4 -9
4 -13 23 -14 25 0 26 -2 9 -8 -11 -5 -24 -6 -28 -4 -5 3 -19 2 -32 -1 -19 -5
-23 -13 -23 -41 0 -19 5 -35 12 -36 6 -1 18 -2 26 -3 8 -2 24 -3 34 -4 16 -2
17 -5 8 -14 -9 -9 -15 -10 -20 -2 -9 14 -62 15 -62 2 0 -6 9 -8 20 -5 11 3 23
1 26 -4 3 -5 -6 -9 -20 -9 -22 0 -26 -5 -26 -29 0 -22 6 -30 24 -35 14 -3 35
-2 48 2 13 5 60 9 106 10 90 2 123 11 82 23 -21 7 -20 8 9 6 45 -3 51 -22 9
-32 -18 -4 -36 -7 -40 -6 -5 0 -8 -3 -8 -8 0 -6 -12 -6 -31 -1 -17 5 -40 6
-52 2 -12 -4 -49 -7 -83 -7 -50 0 -60 -3 -61 -18 -2 -14 2 -15 19 -6 12 7 18
7 14 1 -3 -6 0 -13 6 -15 7 -3 1 -6 -14 -6 -27 -1 -28 -3 -28 -55 0 -30 3 -61
6 -69 8 -21 44 -9 44 14 0 11 4 19 10 19 5 0 7 -8 3 -17 -6 -17 -5 -17 13 -1
16 14 23 15 32 6 21 -21 14 -48 -10 -48 -22 1 -22 1 -5 14 10 8 14 17 9 20 -5
3 -19 -4 -30 -14 -12 -11 -25 -19 -29 -19 -4 1 -16 -1 -25 -5 -16 -7 -16 -9
-2 -24 14 -13 14 -17 2 -21 -7 -4 -15 -23 -17 -45 -2 -26 1 -36 8 -31 6 3 9
10 6 15 -3 5 -1 11 5 15 6 4 8 10 5 14 -2 5 5 17 18 27 l22 19 -19 -22 c-19
-23 -19 -23 0 -23 14 0 16 -2 6 -9 -8 -4 -13 -11 -13 -15 3 -19 -1 -25 -19
-31 -15 -5 -20 -15 -20 -41 0 -21 4 -33 10 -29 6 3 10 1 10 -4 0 -6 -4 -11
-10 -11 -5 0 -10 -9 -10 -20 0 -23 15 -27 24 -5 3 8 10 15 16 15 6 0 4 -7 -4
-16 -21 -20 -20 -24 5 -24 11 0 17 4 14 10 -3 5 -3 10 2 11 61 5 84 6 65 2
-12 -2 -20 -9 -17 -14 3 -5 0 -6 -8 -3 -8 3 -18 0 -23 -7 -4 -7 -3 -10 4 -5 6
3 13 2 17 -4 7 -12 -8 -12 -57 -1 -29 7 -35 6 -31 -5 3 -7 20 -16 39 -20 40
-7 35 -24 -7 -24 -17 0 -32 -6 -36 -15 -9 -24 4 -29 40 -18 18 5 41 7 52 3 17
-6 17 -7 -6 -14 -13 -4 -19 -9 -13 -12 17 -7 66 15 59 26 -8 13 15 13 35 0 18
-11 15 -14 -40 -33 -34 -11 -39 -16 -20 -16 14 0 36 6 50 14 14 8 41 15 60 15
26 0 31 3 20 10 -8 5 -23 7 -32 4 -10 -3 -18 -1 -18 5 0 6 -7 11 -15 11 -8 0
-15 5 -15 10 0 6 12 8 27 4 19 -4 24 -3 15 4 -10 7 -3 11 23 15 36 6 73 -12
58 -27 -4 -3 5 -7 18 -7 20 -1 20 -2 5 -6 -11 -3 -27 -12 -35 -21 -15 -14 -14
-15 7 -10 12 3 20 2 16 -3 -3 -5 3 -8 13 -7 37 3 54 -2 47 -13 -5 -8 1 -10 19
-5 27 6 41 -3 29 -19 -9 -13 -55 -18 -47 -5 3 6 -1 11 -9 11 -9 1 -20 3 -26 4
-5 1 -17 3 -26 4 -8 0 -12 6 -9 11 4 7 -2 9 -19 4 -16 -4 -26 -2 -26 5 0 15
-30 13 -60 -4 -25 -14 -25 -15 10 -10 19 3 28 2 20 -1 -8 -4 -17 -10 -20 -15
-3 -4 -19 -10 -35 -13 -17 -3 -24 -3 -18 0 23 10 14 20 -19 22 -25 2 -29 0
-18 -8 13 -8 12 -10 -2 -10 -10 0 -18 -5 -18 -11 0 -6 9 -8 20 -4 11 3 20 2
20 -3 0 -14 -52 -22 -72 -11 -25 13 -38 11 -32 -6 5 -13 535 -15 4437 -15
2877 0 4427 4 4417 10 -13 8 -13 10 2 10 9 0 19 -4 22 -9 3 -5 62 -9 131 -8
113 1 125 3 125 19 0 10 7 18 15 18 8 0 15 -9 15 -20 0 -17 7 -20 48 -20 37 1
43 3 29 11 -9 5 -21 8 -26 5 -11 -7 -41 3 -41 13 0 9 66 8 75 -1 4 -4 18 -3
32 3 32 12 56 12 48 -1 -3 -6 -15 -10 -25 -10 -10 0 -22 -5 -25 -11 -9 -13 55
-5 64 9 8 12 74 24 66 12 -3 -6 -15 -10 -25 -10 -10 0 -21 -4 -25 -9 -3 -6
111 -10 302 -10 184 0 300 4 288 9 l-20 9 20 1 20 1 -20 15 c-19 15 -18 15 20
10 33 -5 36 -4 19 5 l-21 11 24 24 c13 13 28 22 34 19 5 -3 6 1 3 9 -3 9 -10
16 -16 16 -5 0 -6 6 -2 13 6 9 4 9 -8 -1 -10 -8 -26 -10 -42 -6 -20 5 -26 2
-26 -10 0 -9 -8 -16 -17 -16 -15 0 -15 2 -4 9 19 12 7 39 -21 51 -22 8 -21 9
7 10 23 0 27 3 15 10 -13 8 -12 10 3 10 9 0 17 -7 17 -15 0 -16 12 -18 59 -9
34 7 42 24 11 24 -24 0 -26 17 -3 42 9 11 11 18 5 18 -7 0 -12 -5 -12 -10 0
-6 -8 -5 -19 2 -11 7 -18 15 -15 20 3 4 -14 12 -36 18 -48 13 -50 17 -11 18
17 0 40 6 53 13 13 7 29 12 37 10 7 -1 10 2 6 9 -4 6 -26 9 -53 6 -26 -2 -39
-2 -29 1 33 9 14 40 -28 45 l-30 3 24 14 c13 7 21 8 17 2 -4 -6 0 -11 8 -11
18 0 22 26 4 32 -8 3 -8 9 0 24 6 10 12 14 12 8 0 -7 14 -14 30 -16 37 -6 38
-3 3 16 -21 11 -23 15 -10 16 10 0 16 4 13 9 -3 5 1 11 9 15 8 3 15 1 15 -4 0
-6 9 -10 20 -10 35 0 21 18 -19 25 -29 5 -38 11 -34 21 3 8 0 14 -7 14 -6 0
-8 5 -5 10 3 6 -2 10 -12 11 -10 0 -3 5 15 10 41 12 42 27 1 21 -17 -3 -48 3
-70 14 l-40 18 28 11 c15 7 32 10 37 7 5 -3 6 0 2 6 -4 7 -16 12 -26 12 -10 0
-21 4 -24 8 -3 5 17 8 44 6 28 -1 53 2 56 8 4 6 -6 8 -25 6 -19 -2 -35 3 -40
11 -6 10 -22 12 -54 9 -25 -3 -51 -2 -59 3 -15 10 3 13 72 10 33 -1 41 1 30 8
-8 6 -15 16 -15 23 -1 7 -6 12 -13 10 -7 -1 -12 2 -12 8 0 9 21 15 43 11 13
-2 7 17 -8 23 -8 3 -15 1 -15 -4 0 -6 -10 -10 -22 -10 -19 0 -20 2 -8 10 11 7
11 10 2 10 -7 0 -10 5 -7 10 3 6 -1 13 -9 16 -9 3 -16 12 -16 20 0 8 -6 11
-15 8 -8 -4 -15 -1 -15 5 0 6 16 11 35 11 24 0 35 5 35 14 0 8 3 21 6 29 4 12
0 14 -18 10 -21 -6 -22 -5 -8 12 14 17 13 18 -3 12 -15 -6 -17 -3 -12 13 5 14
2 20 -9 20 -22 0 -20 20 2 21 15 0 14 2 -3 10 -15 7 -10 8 20 4 22 -2 34 -2
28 1 -7 3 -13 12 -13 20 0 9 -5 12 -10 9 -6 -4 -10 5 -10 20 0 14 3 24 8 22 4
-3 8 6 9 19 6 59 8 64 25 64 23 0 23 19 1 27 -15 6 -15 7 3 15 15 7 13 7 -8 5
-34 -5 -36 6 -5 29 15 11 16 15 5 11 -10 -4 -18 -2 -18 3 0 6 6 10 13 10 6 0
4 5 -6 11 -9 6 -15 15 -12 20 4 5 11 7 16 4 5 -4 9 -2 9 4 0 5 -8 15 -17 20
-10 6 -12 11 -5 11 17 0 15 20 -3 20 -38 0 -61 21 -61 56 0 20 -5 39 -12 43
-7 4 1 12 23 20 24 8 35 18 33 29 -2 13 5 16 42 14 41 -1 43 -1 18 9 -41 16
-34 29 14 29 23 0 38 3 35 7 -4 3 -23 6 -42 5 -22 -1 -34 3 -32 10 1 7 -16 21
-38 31 l-40 20 30 13 30 13 -35 1 c-30 1 -33 2 -18 13 15 12 15 14 0 24 -16
11 -16 12 1 12 44 2 4 60 -42 61 -15 0 -21 5 -18 14 3 7 1 18 -5 24 -8 8 -4
10 13 6 l24 -5 -23 12 c-13 7 -21 18 -18 25 3 8 1 16 -5 19 -5 4 -7 11 -4 16
4 5 -1 9 -9 9 -21 0 -20 16 0 24 13 5 14 9 4 21 -10 12 -9 16 6 22 32 12 43
28 32 46 -5 10 -7 21 -3 26 3 5 -1 12 -7 14 -10 4 -9 6 1 6 11 1 11 4 0 17
-10 13 -8 19 14 40 16 15 27 20 27 12 0 -8 5 -6 11 5 5 9 17 17 24 17 29 0 14
17 -22 26 l-38 10 45 11 45 11 -35 2 c-19 1 -46 6 -60 10 -23 8 -23 8 10 11
19 2 -12 6 -70 9 -58 4 150 6 463 6 352 -1 567 3 567 9 0 5 5 4 12 -3 16 -16
55 -15 61 1 4 9 6 9 6 0 1 -16 92 -18 108 -2 8 8 13 8 17 0 9 -14 106 -15 106
-1 0 6 5 10 10 10 6 0 10 -7 10 -16 0 -13 3 -14 15 -4 8 6 33 12 57 12 225 0
430 -3 427 -7 -3 -2 -19 -5 -36 -7 -21 -1 -33 -8 -37 -21 -4 -15 -11 -17 -39
-12 -47 9 -82 -2 -67 -20 10 -12 0 -15 -57 -18 -37 -2 -27 -2 22 0 108 4 117
4 220 -8 11 -2 -29 -5 -90 -8 -153 -8 -566 -1 -535 10 15 4 -27 6 -100 4 -132
-4 -225 -12 -250 -22 -8 -4 -18 -7 -22 -7 -3 -1 -10 -4 -14 -8 -4 -5 18 -8 48
-8 47 0 56 -3 61 -19 6 -26 0 -31 -37 -32 l-31 -1 30 -8 c25 -6 26 -8 7 -9
-13 0 -20 -5 -17 -11 3 -6 -5 -10 -19 -10 -20 0 -24 4 -20 18 5 14 4 15 -5 2
-8 -12 -33 -15 -113 -15 -83 0 -103 -3 -103 -15 0 -8 -11 -17 -25 -21 -24 -7
-25 -7 -2 -8 15 -1 21 -5 16 -13 -5 -8 -2 -9 11 -4 15 5 16 4 5 -9 -11 -13 -8
-15 16 -16 24 -2 22 -3 -11 -9 -35 -6 -37 -8 -17 -15 13 -4 21 -14 20 -23 -2
-11 8 -20 29 -27 52 -17 50 -25 -7 -25 -29 0 -51 -2 -49 -4 9 -9 109 -13 109
-4 0 9 51 0 60 -11 3 -3 39 -6 80 -6 41 0 91 -3 110 -6 30 -6 27 -7 -25 -10
-144 -7 -166 -12 -105 -19 l55 -7 -55 -3 c-48 -2 -51 -3 -25 -10 26 -7 22 -8
-22 -9 -51 -1 -72 13 -35 22 9 3 -14 5 -53 5 -48 0 -64 -2 -50 -8 11 -5 31 -9
45 -10 23 -1 23 -2 5 -9 -11 -5 -23 -7 -26 -5 -9 5 -19 -33 -11 -40 3 -3 15
-6 26 -5 21 0 21 1 1 9 -18 7 -18 9 -3 15 9 3 25 2 37 -4 23 -13 34 -14 28 -3
-3 4 27 8 67 8 50 1 62 0 41 -6 l-30 -8 28 -1 c32 -1 37 -21 5 -21 -13 0 -30
-5 -38 -11 -11 -7 -1 -8 36 -4 33 4 54 3 59 -4 7 -12 -12 -14 -104 -13 -39 0
-57 5 -63 16 -6 11 -22 16 -46 15 l-37 -2 35 -6 c19 -4 34 -11 33 -17 -2 -13
3 -15 109 -21 68 -3 90 -8 104 -24 14 -16 15 -19 2 -19 -8 0 -18 3 -21 6 -3 4
-47 7 -97 8 -69 0 -89 3 -86 13 3 7 1 13 -4 13 -6 0 -10 -7 -10 -16 0 -11 -8
-14 -32 -12 -24 2 -32 -1 -30 -11 2 -8 -3 -18 -10 -22 -8 -5 -1 -7 17 -5 17 2
36 1 43 -1 23 -9 12 -23 -20 -24 -31 -2 -31 -2 -5 -6 28 -4 37 -27 15 -36 -14
-6 15 -10 49 -8 11 1 24 -3 28 -8 4 -7 -4 -11 -19 -11 -13 0 -27 -6 -29 -12
-4 -10 -8 -9 -16 2 -9 13 -11 13 -11 -2 0 -9 -8 -19 -17 -21 -19 -5 23 -11 67
-9 24 1 24 1 6 -13 -19 -14 -18 -15 15 -16 l34 -1 -30 -7 c-16 -4 -39 -4 -50
1 -19 8 -19 8 -2 -5 24 -20 21 -27 -12 -27 -17 0 -33 -5 -36 -11 -5 -7 5 -8
29 -4 23 5 36 3 36 -3 0 -6 -10 -13 -22 -15 -22 -4 -22 -4 1 -6 l24 -1 -23
-20 c-25 -22 -20 -26 11 -10 15 9 19 7 19 -6 0 -13 7 -15 35 -10 20 4 35 3 35
-2 0 -18 -54 -21 -74 -4 -18 16 -19 16 -13 -1 4 -12 1 -17 -11 -18 -10 0 -12
-3 -4 -6 6 -2 12 -9 12 -14 0 -6 -4 -7 -10 -4 -5 3 -10 1 -10 -5 0 -8 10 -9
30 -5 19 4 30 3 30 -4 0 -6 -16 -11 -37 -11 -20 0 -33 -3 -29 -7 4 -4 31 -8
59 -8 51 -1 62 -6 55 -26 -2 -7 -12 -7 -31 2 -20 9 -33 9 -50 1 -12 -6 -29
-13 -37 -15 -12 -4 -11 -6 2 -6 11 -1 15 -6 12 -16 -4 -8 -2 -15 4 -15 5 0 12
9 15 20 5 21 37 28 37 9 0 -6 -7 -8 -16 -5 -13 5 -15 2 -11 -14 5 -18 0 -20
-41 -22 -37 -1 -40 -2 -14 -5 17 -2 32 -8 32 -13 0 -5 12 -11 28 -13 25 -4 24
-4 -6 -6 -20 0 -31 -5 -27 -11 4 -6 15 -8 26 -5 11 4 19 2 19 -4 0 -6 -12 -11
-27 -12 -16 0 -22 -3 -15 -6 17 -7 15 -23 -3 -23 -8 0 -15 -5 -15 -10 0 -6 3
-9 8 -9 22 4 104 -2 100 -7 -3 -3 -29 -5 -57 -6 -53 0 -67 -12 -29 -24 13 -4
24 -2 26 5 5 14 32 15 32 1 0 -5 9 -10 20 -10 11 0 20 -4 20 -8 0 -5 -14 -8
-30 -7 -17 1 -38 -3 -46 -10 -13 -9 -8 -10 22 -7 32 3 37 2 27 -9 -19 -19 -16
-29 7 -29 46 0 4 -35 -61 -50 -24 -6 -27 -8 -11 -9 15 -1 22 -7 22 -21 0 -11
-4 -20 -9 -20 -5 0 -7 -10 -4 -21 5 -18 7 -19 15 -5 5 9 17 16 26 15 10 0 12
-3 5 -6 -20 -8 -15 -26 5 -19 13 6 12 2 -5 -15 -16 -16 -26 -20 -35 -12 -7 5
-24 7 -38 2 -14 -4 -20 -8 -15 -10 21 -5 30 -7 41 -8 6 0 11 -8 11 -16 0 -11
-12 -15 -41 -16 -32 0 -37 -2 -21 -9 11 -5 32 -9 48 -9 17 -1 27 -6 27 -16 0
-14 -12 -20 -33 -16 -5 1 -6 -3 -3 -8 7 -11 -10 -17 -77 -26 -56 -7 -57 -10
-4 -18 22 -3 35 -2 32 4 -4 5 -2 9 4 9 5 0 11 -5 13 -12 3 -7 12 -6 30 6 17
11 28 13 33 7 3 -7 -3 -11 -15 -11 -12 0 -18 -5 -15 -10 4 -6 11 -8 16 -5 5 4
9 1 9 -4 0 -6 -7 -11 -15 -11 -9 0 -12 -6 -8 -16 4 -11 8 -12 13 -4 6 9 13 9
26 1 11 -6 13 -11 6 -11 -21 0 -3 -20 18 -20 10 0 21 -4 24 -9 3 -5 -4 -8 -17
-8 -12 1 -35 -2 -52 -7 -20 -5 -27 -4 -20 2 6 6 19 12 30 15 11 3 -7 5 -39 4
-33 -1 -61 -7 -63 -13 -2 -6 9 -9 29 -8 18 2 25 1 15 -2 -15 -5 -16 -8 -5 -21
12 -15 8 -16 -32 -11 -25 4 -36 4 -26 1 13 -4 15 -7 7 -13 -7 -4 4 -7 26 -7
21 0 49 -5 63 -11 l25 -11 -30 -1 -30 -1 22 -16 23 -15 -23 -18 c-13 -11 -33
-17 -49 -14 -29 3 -33 -2 -20 -23 8 -13 52 -7 52 7 0 12 28 20 47 13 14 -6 12
-9 -12 -19 l-29 -12 32 -7 c18 -3 30 -11 26 -16 -3 -5 -10 -7 -15 -4 -5 4 -9
3 -9 -2 0 -4 -10 -9 -22 -9 -42 -3 -68 -8 -68 -14 1 -17 20 -32 35 -27 11 5
14 3 9 -5 -5 -8 -2 -9 10 -5 10 4 22 7 27 7 6 0 7 5 4 10 -3 6 -1 10 4 10 6 0
11 -9 11 -21 0 -18 4 -20 25 -15 19 5 23 3 19 -9 -4 -10 0 -15 12 -15 11 0 26
-5 34 -10 10 -6 -5 -8 -45 -5 -41 3 -55 2 -45 -5 12 -8 12 -10 -5 -10 -20 -1
-20 -1 -1 -15 19 -14 19 -15 -8 -15 -16 0 -25 4 -21 10 4 6 -5 10 -22 9 -15
-1 -37 2 -48 6 -11 4 -7 -2 9 -13 l29 -20 -29 -5 c-29 -4 -29 -4 4 -6 17 0 32
-6 32 -12 0 -5 -4 -8 -8 -5 -5 3 -25 -4 -45 -14 -20 -11 -44 -20 -52 -20 -13
0 -14 -2 -3 -14 7 -8 15 -10 16 -5 2 5 11 9 20 9 8 0 24 8 35 17 19 17 20 17
9 -4 -11 -19 -9 -20 11 -15 20 5 20 4 8 -11 -15 -19 -41 -23 -41 -7 0 6 -5 10
-11 10 -6 0 -8 -7 -5 -16 5 -13 1 -15 -16 -11 -13 4 -29 3 -36 -2 -8 -5 18 -8
60 -9 41 0 80 3 88 8 12 8 10 10 -8 10 -13 0 -21 4 -18 9 4 5 21 8 39 7 17 -2
43 -4 57 -5 24 -2 24 -2 6 -16 -17 -13 122 -15 1122 -15 l1142 0 0 1110 c0
951 -2 1110 -14 1110 -8 0 -16 -5 -18 -11 -2 -6 -22 -9 -48 -7 -43 4 -44 4
-20 15 25 12 24 12 -10 13 -24 0 -31 3 -21 9 11 7 11 9 0 14 -8 3 9 6 36 6 95
2 95 2 95 96 0 80 -1 83 -25 89 -29 7 -24 26 6 26 19 0 20 7 18 189 l-1 190
-27 4 -26 4 27 2 28 1 0 2165 0 2165 -6400 0 -6400 0 0 -1065z m8961 -648 c43
-49 64 -102 52 -134 -8 -22 -23 -15 -65 29 -32 33 -39 47 -34 69 3 14 0 34 -7
42 -11 14 -19 12 -76 -23 -68 -41 -104 -71 -57 -46 34 17 46 13 46 -14 0 -22
-110 -105 -153 -115 -33 -9 -44 12 -27 47 10 19 10 21 -1 11 -15 -15 -49 -17
-49 -3 0 11 59 52 150 104 36 21 83 48 105 62 22 13 47 24 55 24 8 0 36 -24
61 -53z m-8681 -161 c229 -34 304 -46 309 -52 8 -8 -26 -4 -105 11 -43 8 -79
13 -82 11 -2 -2 12 -7 30 -11 89 -18 208 -49 208 -54 0 -11 -15 -28 -30 -34
-12 -4 -12 -6 2 -6 18 -1 25 -29 20 -72 -3 -22 -8 -25 -35 -22 l-32 2 28 -11
c15 -7 27 -20 27 -30 0 -19 -9 -19 -125 8 -135 30 -293 65 -342 76 -41 8 -53
15 -53 29 0 23 -4 23 109 -1 52 -12 96 -19 98 -16 5 5 -85 32 -142 42 -53 9
-79 23 -45 24 l25 1 -24 10 c-42 17 -17 19 49 3 36 -8 74 -13 85 -12 11 2 -17
12 -62 22 -46 11 -83 23 -83 28 0 4 6 8 13 8 8 0 7 4 -3 10 -23 15 7 13 72 -4
66 -17 145 -30 138 -23 -5 5 -112 34 -194 52 -22 5 -26 9 -17 15 11 6 10 9 -5
13 -44 11 11 5 166 -17z m9585 -37 c5 -7 -4 -8 -27 -4 -33 6 -35 5 -35 -24 0
-17 4 -31 10 -31 5 0 6 -17 2 -39 -5 -33 -3 -39 13 -44 23 -5 38 29 21 49 -15
19 18 26 86 19 l61 -7 -1 29 c0 15 -4 31 -10 35 -5 4 5 8 23 8 36 0 38 -3 47
-72 l6 -48 -36 0 c-28 0 -38 5 -42 20 -3 12 -14 20 -27 20 -11 0 -37 3 -56 6
-35 6 -35 5 -35 -30 0 -20 3 -36 8 -36 4 0 7 -7 7 -16 0 -11 -7 -14 -30 -10
-17 2 -43 -2 -58 -10 l-27 -14 -7 58 c-4 31 -5 65 -2 75 3 10 0 17 -8 17 -10
0 -10 2 1 9 10 7 10 10 1 16 -9 5 -4 12 16 21 36 15 91 18 99 3z m-3212 -175
c52 -40 65 -67 45 -91 -10 -13 -10 -17 0 -20 6 -3 12 -12 12 -21 0 -12 -5 -10
-17 8 -20 29 -84 89 -95 90 -19 0 -4 -22 52 -79 33 -34 60 -69 59 -79 0 -13
-2 -13 -9 4 -4 12 -26 35 -47 53 -59 49 -55 12 6 -46 l50 -48 9 30 c9 26 10
27 11 7 1 -12 -4 -30 -10 -40 -10 -16 -15 -13 -54 25 l-42 43 -77 0 c-52 0
-87 -5 -109 -16 -38 -20 -97 -63 -115 -84 -10 -13 -11 -13 -6 2 7 20 59 61
123 97 48 27 69 68 27 55 -30 -10 -96 -51 -130 -83 -16 -14 -25 -19 -20 -9 11
20 78 74 117 94 15 8 25 19 22 23 -2 5 2 14 10 21 9 8 15 8 15 2 0 -6 -6 -13
-12 -15 -8 -4 -7 -6 3 -6 10 -1 19 9 21 24 3 14 4 25 2 25 -8 0 -138 -83 -151
-96 -25 -24 -28 -15 -4 10 22 23 21 53 -1 40 -7 -4 -7 0 0 12 29 55 126 103
208 104 55 0 65 -3 107 -36z m380 0 c9 -3 17 -16 17 -28 0 -21 -1 -21 -124
-12 l-124 9 -34 -27 c-43 -32 -48 -32 -48 -3 0 16 13 33 38 51 36 27 39 28
147 22 61 -3 119 -8 128 -12z m2643 -20 c-1 -8 -9 -20 -17 -26 -9 -6 7 -7 51
-3 36 4 70 11 76 16 6 5 31 9 55 8 24 -1 67 1 96 5 38 6 53 4 60 -6 4 -8 16
-14 26 -15 9 0 21 -1 26 -2 4 0 14 -36 21 -78 7 -43 18 -81 24 -85 11 -7 -5
-11 -46 -11 -10 0 -18 -6 -18 -13 0 -8 9 -14 20 -14 11 0 20 -4 20 -9 0 -6 -9
-8 -20 -6 -13 2 -20 -2 -20 -11 0 -8 3 -13 8 -13 4 1 18 1 32 0 l25 -1 -21
-18 c-26 -20 -39 -58 -24 -67 5 -3 10 1 10 9 0 19 20 22 21 4 0 -7 2 -24 4
-38 2 -14 7 -88 11 -165 7 -115 10 -129 14 -80 5 54 6 49 13 -55 4 -63 12
-180 17 -260 14 -203 40 -624 40 -650 0 -16 4 -20 15 -16 8 3 15 1 15 -4 0 -6
-6 -10 -13 -10 -7 0 -14 -12 -15 -26 -2 -25 0 -26 31 -20 29 5 30 4 14 -8 -18
-14 -18 -14 0 -19 12 -3 9 -5 -9 -6 -20 -1 -28 -6 -28 -20 0 -14 6 -17 25 -13
21 4 24 1 18 -13 -5 -14 -3 -16 7 -10 9 5 11 4 6 -3 -4 -7 -18 -12 -32 -12
-15 0 -24 -6 -24 -15 0 -10 10 -15 30 -15 27 0 34 -7 28 -27 -3 -8 -7 -9 -41
-11 -10 -1 -16 -6 -13 -11 11 -17 -6 -42 -23 -36 -9 3 -3 -6 13 -20 26 -23 27
-25 8 -25 -11 0 -23 6 -25 13 -3 6 -6 1 -7 -13 -1 -23 -2 -23 -10 -5 -7 17 -9
17 -9 3 -1 -21 -17 -24 -24 -5 -3 7 -6 5 -6 -5 -1 -10 4 -18 9 -18 6 0 10 -4
10 -8 0 -5 -12 -7 -27 -5 -31 4 -62 -11 -49 -24 5 -4 11 -2 13 5 7 18 23 15
24 -5 1 -17 2 -17 6 0 2 9 9 15 14 11 5 -3 7 -10 4 -15 -4 -5 1 -9 9 -9 9 0
16 7 16 15 0 8 3 15 8 15 4 0 7 -27 7 -60 l0 -60 -39 0 c-22 0 -36 -3 -33 -7
4 -3 34 -5 68 -4 52 1 60 -1 50 -12 -6 -8 -9 -21 -6 -30 5 -12 -3 -15 -47 -14
-47 0 -53 -2 -59 -24 -4 -13 -7 -18 -8 -11 -2 18 -77 16 -85 -3 -4 -13 -2 -13
14 -5 29 15 39 12 35 -11 -4 -18 0 -20 20 -16 32 6 32 -1 0 -13 -14 -5 -25
-14 -25 -20 0 -6 5 -8 10 -5 6 4 10 -8 10 -29 0 -25 -4 -36 -15 -36 -8 0 -15
-3 -15 -7 0 -8 301 -5 309 3 10 10 -11 14 -85 17 -43 1 -85 6 -92 10 -7 5 -14
2 -18 -7 -12 -32 -74 -13 -74 22 0 10 7 13 21 9 28 -7 49 1 43 18 -3 7 0 16 6
20 7 4 14 -2 17 -14 3 -12 13 -22 22 -22 16 -1 22 0 55 9 13 3 17 1 12 -6 -4
-7 -2 -12 3 -12 6 0 11 5 11 10 0 6 18 10 40 10 38 0 40 2 40 30 l0 30 103 0
c56 0 156 3 222 5 153 6 763 23 1095 30 140 3 283 8 316 11 55 5 61 8 57 25
-5 18 1 19 125 19 72 0 139 3 149 6 15 6 16 4 6 -6 -7 -8 -35 -14 -63 -14 -28
-1 -50 -6 -50 -11 0 -6 -16 -10 -37 -8 -28 2 -32 0 -15 -5 45 -14 22 -27 -43
-24 -60 3 -64 2 -62 -17 1 -24 0 -23 83 -21 43 1 64 -3 73 -14 21 -25 3 -37
-52 -35 -29 2 -62 -1 -74 -5 -22 -7 -28 0 -24 27 2 13 -27 8 -32 -6 -5 -15 5
-14 -362 -22 -132 -3 -242 -5 -245 -6 -3 0 -49 -2 -103 -4 -73 -2 -101 1 -111
11 -12 11 -15 11 -20 -1 -4 -12 -27 -14 -121 -12 -63 1 -115 -1 -115 -4 0 -3
-55 -7 -122 -7 -391 -3 -680 -23 -476 -32 95 -4 99 -4 260 4 89 4 139 3 143
-4 3 -5 14 -10 23 -9 11 0 12 3 5 6 -30 11 -9 18 54 16 147 -3 439 2 678 11
66 3 228 8 360 11 218 7 242 6 255 -9 12 -16 9 -17 -36 -16 -57 1 -448 -8
-704 -16 -96 -3 -213 -6 -260 -5 -104 1 -190 -7 -190 -19 0 -5 51 -7 113 -5
61 2 265 7 452 10 187 4 376 9 420 11 135 6 232 -13 145 -29 -14 -2 3 -5 38
-6 58 -1 77 -11 51 -27 -6 -3 -16 -1 -22 5 -14 14 -92 14 -117 1 -12 -6 -34
-7 -57 -2 -21 5 -51 5 -67 1 -39 -11 -86 0 -87 20 -1 13 -2 13 -5 1 -6 -22
-92 -56 -106 -42 -6 6 -23 9 -37 7 -101 -16 -101 -16 -102 13 l-2 27 -4 -27
c-2 -16 -9 -28 -15 -28 -5 0 -25 -7 -44 -16 -27 -13 -37 -14 -49 -4 -12 10
-15 10 -15 0 0 -8 -13 -11 -40 -8 -22 2 -40 1 -40 -3 0 -12 -49 -16 -59 -6 -8
8 -15 7 -23 -1 -16 -16 -28 -15 -28 3 0 10 -10 15 -30 15 -17 0 -30 -5 -30
-12 0 -10 -3 -9 -9 1 -6 9 -23 12 -54 10 -25 -2 -43 -1 -40 4 2 4 32 7 66 8
61 0 131 17 80 18 -15 1 -23 7 -24 19 0 10 -3 12 -6 5 -2 -7 -11 -13 -19 -13
-8 0 -14 -4 -14 -10 0 -5 -24 -10 -54 -10 -51 0 -55 -2 -51 -22 5 -25 -5 -72
-13 -63 -4 3 -5 24 -3 45 l3 40 -59 -2 c-44 -1 -50 -2 -23 -6 l35 -5 -30 -6
c-16 -3 -31 -12 -31 -19 -3 -25 -6 -26 -14 -7 -7 17 -9 17 -9 3 -1 -19 -41
-26 -41 -7 0 6 -7 3 -16 -5 -21 -21 -24 -20 -24 9 0 19 5 25 22 25 27 0 21 5
-14 14 -26 6 -27 5 -22 -24 4 -19 2 -30 -5 -30 -6 0 -11 8 -12 18 0 9 -7 1
-14 -18 -7 -19 -14 -27 -14 -17 -1 11 -9 17 -25 17 -14 0 -28 5 -31 10 -3 6
-1 10 5 10 6 0 9 4 5 9 -3 6 14 12 37 14 24 2 -5 4 -64 5 l-108 2 0 -30 c0
-16 -5 -30 -11 -30 -5 0 -7 5 -4 10 3 5 -1 10 -9 10 -9 0 -16 -5 -16 -11 0 -5
-4 -7 -10 -4 -21 13 -10 44 18 48 15 2 -2 5 -36 6 -56 1 -65 -1 -69 -19 -6
-22 -11 -24 -33 -10 -12 8 -12 10 5 10 17 1 18 2 4 10 -8 5 -26 6 -39 3 -22
-6 -23 -7 -4 -14 16 -6 16 -8 2 -8 -10 -1 -16 -9 -15 -21 1 -22 5 -23 60 -14
27 5 37 11 37 25 0 13 7 19 23 18 16 -1 18 -2 5 -6 -10 -2 -18 -14 -18 -25 0
-16 3 -18 14 -9 11 9 15 7 19 -11 4 -12 5 -23 4 -24 -5 -5 -236 -9 -240 -4 -3
3 -8 25 -11 50 -3 25 -3 39 0 33 3 -7 12 -13 20 -13 8 0 14 -4 14 -10 0 -5 -7
-10 -16 -10 -8 0 -12 -5 -9 -10 4 -6 24 -10 46 -8 36 2 39 4 39 30 0 24 -4 28
-30 28 -16 0 -30 5 -30 10 0 6 -11 10 -24 10 -14 0 -28 -4 -31 -10 -3 -5 -13
-10 -22 -10 -9 0 -14 3 -11 6 4 3 3 18 -2 34 l-8 28 172 2 c94 2 191 4 216 5
25 1 106 3 181 5 74 1 142 6 150 11 9 7 -105 7 -321 3 -184 -4 -375 -8 -424
-8 -67 -1 -91 -5 -94 -15 -4 -11 5 -13 41 -9 40 5 44 4 31 -9 -8 -8 -14 -17
-14 -21 0 -13 17 -34 26 -32 5 0 12 -13 15 -29 4 -17 3 -31 -2 -31 -5 0 -9 11
-9 25 0 17 -5 25 -17 25 -39 0 -62 -13 -65 -34 -3 -22 -4 -22 -78 -10 -41 8
-97 16 -125 18 -27 3 -84 10 -125 15 -41 5 -83 10 -92 10 -14 1 -18 10 -18 39
l0 38 -40 -4 c-32 -3 -40 -1 -40 12 0 13 12 16 59 16 57 0 60 -1 64 -27 2 -16
5 2 6 39 l1 66 -42 -5 c-48 -5 -88 3 -88 18 0 7 24 9 65 7 53 -2 65 0 65 12 0
12 -12 14 -60 12 -38 -3 -60 0 -60 7 0 14 42 24 83 19 l32 -3 -3 93 c-2 51 -1
100 4 110 13 30 17 122 5 122 -18 0 -12 24 9 38 11 7 20 21 20 31 0 21 19 31
55 31 14 0 32 8 42 19 19 19 73 37 73 23 0 -4 9 -8 20 -9 17 -2 20 4 20 40 0
71 -9 89 -39 83 -14 -3 -70 -8 -123 -11 -84 -5 -98 -4 -98 10 0 10 11 16 38
17 20 1 51 3 67 4 17 1 38 3 48 3 10 1 17 8 16 19 0 10 -3 12 -6 5 -2 -7 -14
-12 -26 -12 -20 1 -20 2 -3 6 18 5 18 6 -5 19 -13 8 -17 14 -9 13 8 -1 24 -1
35 0 18 1 19 2 3 12 -27 15 -22 39 8 39 14 0 23 -4 19 -10 -3 -5 -14 -10 -23
-10 -14 0 -14 -2 -3 -9 8 -5 19 -8 25 -7 6 2 8 1 4 -1 -5 -3 -8 -17 -8 -33 0
-26 2 -28 33 -23 40 6 46 11 27 24 -11 8 -12 12 -2 16 6 2 12 11 12 18 0 7 -6
15 -12 18 -10 3 -10 7 1 20 15 19 7 22 -61 18 -29 -2 -38 1 -38 13 0 11 13 16
50 18 28 2 50 7 50 12 0 5 -25 8 -56 7 -42 -2 -55 1 -52 10 2 7 24 13 51 14
26 1 51 5 54 9 13 13 -20 25 -52 19 -16 -3 -34 -6 -39 -7 -6 0 -12 7 -14 17
-3 16 1 18 30 13 43 -7 78 2 78 20 0 8 -6 14 -12 15 -10 0 -10 2 0 6 15 6 6
124 -11 135 -7 4 -7 11 2 21 8 11 10 43 5 121 -6 97 -9 106 -25 101 -11 -4
-19 -1 -19 5 0 7 9 14 20 17 12 3 20 14 20 25 0 17 -3 18 -15 8 -9 -7 -26 -9
-46 -5 -22 5 -34 3 -40 -6 -7 -11 -9 -11 -9 3 0 12 13 18 50 23 32 4 50 12 50
21 0 7 -6 11 -14 8 -8 -3 -17 0 -21 6 -4 7 2 14 14 17 21 5 29 22 11 24 -27 3
-47 1 -63 -6 -18 -8 -35 0 -24 11 3 4 26 9 51 11 l46 6 -5 86 c-14 212 -16
233 -31 227 -8 -3 -14 -1 -14 3 0 5 -9 7 -20 4 -11 -3 -20 -1 -20 5 0 6 -9 14
-20 17 -25 8 -26 25 -2 26 13 0 12 3 -5 11 -14 7 -23 20 -23 35 0 21 -2 22
-20 11 -17 -10 -18 -14 -5 -16 17 -4 20 -18 5 -27 -8 -5 -8 -11 0 -20 8 -10 6
-17 -9 -27 -22 -16 -18 -30 5 -21 21 8 17 -10 -6 -24 -10 -7 -26 -10 -35 -7
-8 3 -15 2 -15 -3 0 -6 -15 -9 -32 -8 -18 1 -36 -3 -40 -9 -5 -7 -8 -4 -8 7 0
19 -15 23 -25 7 -10 -16 -26 -11 -24 8 1 9 0 19 -1 22 -1 3 -3 29 -5 58 -4 47
-2 54 18 63 l22 10 -22 -5 c-32 -6 -29 15 5 37 l27 18 -27 -6 c-16 -3 -28 -1
-28 5 0 5 3 10 8 10 4 0 13 9 20 21 12 18 11 19 -6 10 -26 -14 -37 -1 -13 15
12 9 17 21 14 39 -4 19 -1 25 13 26 17 1 17 2 2 6 -22 5 -24 31 -3 39 8 4 15
10 15 15 0 5 -7 9 -15 9 -8 0 -15 5 -15 10 0 6 5 10 10 10 6 0 10 9 10 20 0
11 -4 20 -10 20 -5 0 -10 12 -10 28 0 21 2 24 10 12 8 -13 10 -12 10 3 0 9 4
17 9 17 5 0 8 -7 7 -16z m-3022 -269 c44 -33 76 -92 57 -104 -9 -6 -10 -11 -2
-15 6 -4 11 -15 10 -24 0 -14 -2 -13 -9 3 -4 11 -22 34 -40 50 -29 27 -39 30
-118 35 -85 5 -87 5 -149 -32 -35 -20 -63 -32 -63 -27 0 5 5 9 11 9 5 0 8 4 5
8 -6 11 4 25 34 45 27 19 44 22 35 7 -3 -5 -3 -10 2 -10 14 0 29 14 36 33 5
13 17 17 49 16 40 -1 106 -15 83 -18 -5 -1 9 -10 31 -20 23 -10 48 -29 57 -41
9 -13 17 -17 21 -11 10 16 -9 45 -48 74 -30 24 -44 27 -111 27 -82 0 -137 -20
-206 -76 l-34 -28 30 33 c17 18 53 46 80 62 43 25 60 29 128 29 68 0 83 -3
111 -25z m3954 -48 c19 -13 15 -75 -5 -81 -33 -9 -278 -4 -296 6 -13 7 -17 18
-15 41 l3 32 110 5 c146 7 188 6 203 -3z m-3985 -34 c-2 -7 9 -19 25 -27 32
-16 66 -54 70 -78 1 -9 -17 4 -42 28 l-43 44 -80 0 c-47 0 -95 -6 -114 -14
-58 -24 -119 -74 -119 -97 0 -21 1 -20 38 7 20 15 52 43 70 62 18 19 35 32 39
29 3 -4 1 -12 -5 -19 -8 -10 6 -12 73 -10 73 3 87 1 118 -20 20 -12 43 -36 53
-52 14 -24 10 -22 -25 13 l-41 41 -94 0 c-71 0 -98 -4 -110 -15 -8 -8 -20 -15
-26 -15 -7 0 -34 -16 -60 -35 l-47 -35 7 42 c6 30 18 50 42 70 18 15 36 28 39
28 3 0 12 11 19 25 7 14 21 25 31 25 9 0 19 6 22 13 6 17 163 7 160 -10z
m-4743 -33 c0 -5 -6 -10 -12 -10 -9 0 -8 -4 2 -10 12 -8 10 -10 -10 -10 l-25
-1 25 -14 c22 -13 23 -14 5 -15 -19 -1 -19 -2 -1 -9 14 -5 16 -10 8 -15 -7 -4
-16 -4 -22 -1 -5 3 -10 3 -10 -2 0 -4 -4 -34 -10 -67 -5 -32 -10 -87 -11 -122
-2 -60 -11 -80 -22 -51 -4 9 -8 8 -16 -3 -9 -12 -11 -9 -10 15 0 17 3 24 6 18
10 -27 29 -12 31 25 1 29 -1 33 -8 17 -8 -19 -9 -19 -9 2 -1 12 5 24 12 26 7
3 5 6 -5 6 -14 1 -18 -7 -18 -31 0 -17 -3 -29 -6 -25 -4 3 -3 67 1 141 l7 135
26 4 c51 8 72 7 72 -3z m-237 -128 c-2 -48 -5 -97 -7 -109 -2 -13 1 -23 5 -23
7 0 15 103 10 133 0 4 16 7 37 7 52 0 72 -25 70 -91 -1 -50 -1 -51 -27 -46
-15 3 -33 2 -40 -2 -8 -5 1 -10 26 -14 l38 -6 -3 -72 c-2 -39 -7 -68 -10 -64
-4 3 -5 22 -3 41 2 25 -1 34 -13 34 -10 0 -13 6 -9 16 5 14 3 14 -16 2 -18
-11 -23 -11 -31 2 -6 10 -10 11 -10 3 0 -29 -20 -10 -21 20 -2 31 -2 31 -9 -8
-4 -22 -8 -35 -9 -29 0 6 -50 16 -116 24 l-115 13 -2 51 -2 51 -3 -48 -4 -49
-50 7 c-41 6 -48 5 -43 -8 3 -9 22 -20 42 -26 l37 -11 -37 5 c-28 3 -38 0 -38
-11 0 -8 -4 -14 -9 -14 -5 0 -13 24 -17 53 -11 77 -11 87 -4 87 12 0 7 104 -4
112 -6 4 -7 10 -3 15 5 4 12 1 17 -6 8 -14 40 -12 98 5 20 6 22 3 24 -42 l2
-49 3 47 c4 51 12 57 81 64 l44 4 -5 -118 c-4 -83 -3 -99 3 -57 4 33 8 88 9
123 1 61 2 62 29 63 15 0 36 4 47 8 38 15 43 4 38 -87z m4958 -19 c1 -17 2
-17 6 0 2 9 8 17 11 17 13 0 102 -99 102 -112 -1 -8 -7 -5 -18 7 -37 45 -64
55 -139 55 -63 0 -73 -2 -73 -17 0 -16 2 -16 11 -3 9 12 12 13 16 1 5 -11 7
-11 14 0 6 10 9 11 9 2 0 -9 16 -13 48 -13 38 0 55 -6 85 -31 20 -17 37 -35
37 -42 0 -6 -14 2 -31 19 -28 27 -37 29 -122 34 -82 4 -97 2 -137 -18 -25 -12
-62 -36 -82 -53 -21 -16 -35 -23 -32 -15 3 8 16 22 29 30 13 9 26 25 30 36 3
11 14 20 24 20 21 0 32 10 25 21 -6 10 -46 -13 -88 -50 l-29 -26 24 37 c13 20
27 34 31 32 5 -3 8 2 8 10 0 9 4 16 8 16 5 0 17 8 28 18 33 30 67 41 137 41
57 1 67 -2 68 -16z m-5358 -90 c-5 -114 -7 -123 -27 -123 -13 0 -14 9 -9 45 3
28 2 45 -4 45 -6 0 -10 -8 -10 -17 0 -76 -1 -78 -58 -106 -37 -18 -55 -23 -56
-14 -2 23 3 42 14 49 9 6 8 8 -1 8 -8 0 5 21 28 48 23 26 47 57 53 70 6 12 16
22 24 22 7 0 13 10 13 23 0 22 16 47 31 47 4 0 5 -44 2 -97z m8642 57 c0 -26
-15 -34 -87 -45 -23 -4 -38 -11 -38 -20 0 -19 -35 -28 -59 -15 -15 7 -33 7
-66 -1 -47 -12 -71 -5 -45 11 13 8 13 10 -1 10 -9 0 -19 7 -23 15 -10 27 5 45
38 45 18 0 35 3 38 6 3 3 43 7 88 9 46 3 85 7 88 10 4 3 20 5 37 3 24 -2 30
-8 30 -28z m-3325 -69 c0 -4 21 -11 46 -14 44 -5 104 -45 104 -71 0 -5 -6 -1
-14 10 -8 10 -18 16 -22 11 -4 -4 2 -21 14 -37 12 -16 22 -33 22 -37 0 -4 -4
-3 -8 2 -4 6 -21 21 -39 33 -26 18 -45 22 -116 22 -47 0 -88 -4 -91 -9 -3 -5
-22 -12 -41 -15 -19 -4 -35 -11 -35 -16 0 -5 -9 -12 -20 -15 -12 -4 -30 -16
-40 -28 -11 -11 -20 -16 -20 -11 0 15 48 58 104 93 39 24 56 29 84 25 21 -4
38 -1 42 6 5 8 11 8 21 -2 17 -16 59 -22 59 -8 0 6 11 4 23 -5 22 -14 24 -14
24 2 0 28 -16 33 -108 33 -95 0 -156 -22 -223 -81 -20 -17 -36 -29 -36 -25 0
12 59 65 91 82 19 9 45 27 58 40 18 19 35 24 72 24 27 0 49 -4 49 -9z m-5705
-11 c-3 -5 -1 -10 4 -10 6 0 11 5 11 11 0 8 13 9 43 4 23 -4 72 -8 109 -9 38
0 68 -5 68 -11 0 -6 -45 -10 -115 -10 -70 0 -115 -4 -116 -10 0 -5 -3 -19 -5
-30 -3 -11 -6 -46 -7 -78 -2 -55 -1 -57 23 -57 40 0 70 -11 70 -25 0 -9 -15
-13 -45 -13 -34 1 -45 5 -41 15 3 7 2 13 -3 13 -13 0 -21 -40 -8 -41 9 0 9 -2
1 -5 -7 -3 -9 -14 -7 -26 4 -11 0 -24 -8 -29 -11 -7 -11 -11 -2 -17 8 -5 9
-13 3 -22 -13 -20 -12 -30 1 -30 5 0 7 5 4 10 -4 6 16 10 54 10 53 0 60 -2 55
-17 -5 -17 -5 -17 6 -1 12 20 40 13 40 -10 0 -13 -12 -14 -80 -8 -52 4 -80 3
-80 -4 0 -5 19 -10 43 -10 39 0 67 -13 67 -31 0 -3 -20 -4 -45 -2 -54 7 -77
-1 -68 -22 4 -11 8 -13 13 -6 3 6 17 9 31 7 13 -3 32 -5 42 -5 9 -1 17 -8 17
-17 0 -12 -10 -15 -52 -13 l-52 3 -3 -64 c-2 -36 -5 -75 -7 -87 -3 -21 0 -23
50 -23 48 0 54 -2 54 -21 0 -20 -4 -21 -50 -17 -28 3 -53 1 -56 -3 -3 -5 6 -9
19 -9 48 0 87 -12 87 -27 0 -13 -11 -15 -55 -11 -38 3 -55 1 -55 -7 0 -6 8
-12 18 -12 100 1 134 -4 123 -16 -14 -17 -117 -22 -126 -6 -6 8 -10 7 -16 -2
-16 -26 -9 -29 61 -29 49 0 70 -4 70 -12 0 -10 2 -10 9 0 4 8 11 13 15 13 39
-5 65 11 34 22 -7 2 -3 2 9 1 12 -2 24 2 26 9 3 6 6 3 6 -9 1 -13 -9 -24 -26
-32 -22 -9 -23 -11 -6 -8 13 2 26 0 29 -5 6 -10 -17 -12 -143 -10 -86 1 -92
-1 -90 -19 1 -17 9 -20 57 -21 30 0 64 -5 75 -10 14 -6 -5 -8 -57 -4 -69 4
-78 3 -79 -13 -1 -9 -2 -41 -4 -70 l-3 -54 48 4 c38 2 47 0 45 -12 -2 -11 -15
-15 -50 -15 l-48 0 -2 -37 -1 -38 54 0 c33 0 51 -4 47 -10 -9 -15 4 -12 21 5
9 8 19 15 24 15 12 0 -1 -40 -14 -41 -47 -3 -122 5 -129 14 -6 8 -7 7 -4 -3 2
-8 0 -25 -4 -37 -6 -17 -5 -23 6 -23 19 0 28 17 13 23 -7 3 6 6 30 6 23 1 42
-1 42 -3 0 -2 3 -11 6 -20 5 -13 -2 -16 -44 -16 -28 0 -54 -4 -57 -10 -4 -6
18 -10 57 -11 35 0 57 -3 51 -6 -7 -2 -13 -11 -13 -19 0 -10 -12 -13 -47 -11
-32 1 -48 -2 -51 -12 -3 -10 0 -11 9 -5 12 7 12 5 0 -9 -7 -9 -10 -17 -6 -17
4 0 2 -7 -5 -15 -10 -12 -10 -15 0 -15 10 0 10 -3 0 -15 -7 -8 -9 -15 -5 -15
4 0 1 -8 -6 -17 -12 -15 -12 -16 1 -8 13 8 13 7 1 -8 -10 -13 -10 -17 -1 -17
9 0 10 -3 2 -13 -9 -11 0 -13 48 -11 33 1 60 -2 60 -7 0 -5 -6 -9 -12 -10 -7
-1 -2 -5 12 -9 20 -6 14 -8 -27 -9 -35 -1 -55 4 -60 13 -7 12 -11 12 -33 0
-25 -15 -25 -15 -1 -8 18 5 22 3 15 -7 -5 -8 -9 -26 -9 -41 -1 -28 0 -28 67
-28 61 0 68 -2 68 -20 0 -11 -4 -20 -10 -20 -5 0 -10 7 -10 15 0 8 -4 15 -10
15 -5 0 -10 -7 -10 -16 0 -13 -7 -15 -37 -11 -24 4 -47 1 -63 -8 -23 -12 -18
-14 55 -13 67 1 81 -2 83 -16 3 -14 -5 -16 -57 -15 -33 1 -58 5 -56 10 8 12
-10 18 -25 8 -12 -7 -12 -9 -1 -9 11 0 11 -3 1 -15 -10 -12 -9 -15 6 -15 16
-1 15 -3 -6 -15 -14 -8 -20 -14 -14 -15 6 0 11 -15 10 -32 -1 -24 -7 -34 -21
-37 -17 -3 -18 -2 -5 15 9 11 10 15 3 10 -7 -4 -13 -2 -13 3 0 6 6 11 13 12 9
0 9 2 0 5 -8 4 -9 13 -4 27 4 12 6 39 5 59 -1 29 3 39 17 43 11 4 19 11 19 18
0 8 -3 8 -12 -1 -17 -17 -33 -15 -18 3 10 12 10 15 -1 15 -8 0 -5 6 7 15 19
15 19 15 -1 8 -18 -6 -18 -5 -6 10 7 10 9 17 3 17 -6 0 -9 8 -7 18 2 9 4 17 5
17 1 0 3 21 4 46 2 25 6 51 10 57 4 7 2 12 -5 12 -8 0 -8 4 1 15 10 12 10 15
-1 15 -9 0 -10 3 -4 8 6 4 10 34 10 67 0 33 2 64 4 70 3 5 6 28 7 50 4 94 14
264 19 310 3 28 7 91 10 140 6 110 15 233 20 300 2 28 7 97 11 155 4 58 12
108 18 112 6 5 7 8 1 8 -6 0 -9 28 -7 70 3 54 7 70 18 70 9 0 12 -4 9 -10z
m4073 -107 c-25 -6 -23 -23 3 -23 11 0 18 -4 15 -9 -4 -5 0 -11 6 -14 7 -2 10
-8 6 -12 -4 -4 -14 -3 -21 3 -19 16 -24 8 -19 -33 3 -21 8 -32 15 -28 6 3 23
7 39 8 25 2 28 -1 28 -26 0 -22 -5 -29 -20 -29 -11 0 -20 -4 -20 -9 0 -5 -11
-12 -25 -15 -14 -4 -25 -13 -25 -21 0 -8 -6 -15 -12 -16 -10 0 -10 -2 0 -6 8
-3 12 -30 12 -83 0 -70 -2 -78 -20 -83 -20 -5 -21 -2 -19 129 1 74 -1 137 -4
141 -15 14 -6 74 13 93 11 11 20 25 20 30 0 6 10 9 23 9 16 -1 18 -2 5 -6z
m1748 -288 c12 -4 27 -19 34 -33 12 -27 12 -27 -9 -8 -12 11 -24 16 -28 13
-13 -14 42 -52 70 -49 39 5 34 -15 -5 -20 -22 -4 -36 0 -43 9 -9 12 -11 10
-11 -6 0 -12 6 -21 12 -21 13 0 30 -38 21 -46 -2 -2 -16 7 -31 21 -23 21 -37
25 -87 25 -44 0 -60 -3 -57 -12 5 -16 68 -23 68 -9 0 12 44 -2 65 -22 8 -6 21
-18 30 -25 8 -7 15 -18 15 -25 0 -8 -3 -8 -8 -1 -4 5 -18 18 -32 27 -54 37
-320 12 -320 -30 0 -7 4 -13 9 -13 12 0 72 27 94 43 11 8 20 9 25 2 10 -14
122 -18 122 -4 0 19 46 1 81 -31 18 -16 30 -32 26 -36 -3 -3 -13 1 -22 10 -9
9 -23 16 -31 16 -8 0 -13 3 -11 8 3 4 -45 4 -106 1 -108 -6 -207 -30 -207 -50
0 -5 -6 -9 -14 -9 -8 0 -22 -10 -30 -22 -9 -12 -16 -17 -16 -11 0 13 50 63 62
63 5 0 8 7 8 16 0 11 -6 14 -22 9 l-23 -6 23 17 c12 9 22 24 23 33 0 9 3 11 5
5 6 -14 103 18 115 37 8 12 11 11 19 -1 8 -13 10 -12 10 4 0 16 -6 18 -42 13
-23 -3 -68 -19 -101 -36 -33 -17 -53 -24 -46 -15 7 8 30 24 51 35 42 21 54 55
16 44 -13 -4 -39 -19 -58 -33 -26 -20 -31 -21 -20 -7 31 43 53 64 62 59 4 -3
11 2 14 10 3 9 10 16 16 16 5 0 6 -4 3 -10 -3 -5 -2 -10 4 -10 6 0 15 9 21 20
16 29 -3 26 -69 -11 -31 -18 -50 -25 -42 -16 20 25 77 58 123 72 43 12 207 13
244 0z m2733 -170 c22 -7 17 -95 -6 -95 -11 0 -14 8 -11 30 3 17 1 30 -3 30
-4 0 -9 -15 -11 -32 -2 -26 -7 -32 -22 -30 -11 2 -15 -1 -11 -7 3 -6 15 -11
25 -11 10 0 25 -7 34 -15 8 -8 26 -15 40 -15 17 0 26 -6 26 -16 0 -12 -8 -14
-35 -10 -30 5 -35 3 -33 -11 2 -12 15 -20 37 -23 45 -7 54 -30 11 -30 -35 0
-70 -15 -70 -30 0 -6 16 -10 36 -10 24 0 34 -4 32 -12 -6 -18 -59 -22 -70 -6
-7 9 -8 5 -4 -12 3 -14 6 -33 6 -43 0 -10 5 -15 10 -12 6 3 10 1 10 -4 0 -6
-5 -11 -11 -11 -6 0 -9 -6 -6 -12 3 -7 8 -22 12 -33 6 -17 5 -18 -5 -5 -10 12
-11 11 -6 -10 3 -14 6 -28 6 -32 0 -5 9 -8 20 -8 11 0 20 -7 20 -15 0 -8 -9
-15 -20 -15 -11 0 -20 -7 -20 -15 0 -11 11 -15 39 -15 44 0 51 -7 62 -60 9
-40 1 360 -8 405 -3 17 -2 27 3 22 8 -7 25 -297 39 -637 4 -118 3 -172 -3
-165 -6 6 -12 47 -14 92 -2 46 -6 83 -10 83 -5 0 -8 7 -8 16 0 8 4 12 10 9 5
-3 8 0 6 7 -3 7 -7 32 -10 56 -5 34 -4 42 6 36 7 -5 5 4 -5 19 -9 14 -18 38
-19 52 -1 14 -6 25 -11 25 -5 0 -6 -13 -2 -29 3 -17 2 -32 -4 -36 -7 -4 -12
11 -13 42 -1 47 -1 47 -5 8 -5 -47 -19 -67 -33 -45 -7 11 -10 8 -11 -15 -1
-16 0 -36 1 -44 1 -9 -5 -12 -19 -8 -25 6 -29 -17 -7 -39 11 -11 16 -11 19 -1
3 7 6 5 6 -5 1 -22 -16 -33 -32 -20 -17 13 -76 26 -109 23 -16 -1 -28 2 -28 8
0 7 10 9 25 5 14 -3 25 -2 25 4 0 5 -16 12 -35 14 -26 3 -34 1 -31 -9 3 -7 1
-13 -4 -13 -9 0 -11 10 -10 38 1 4 9 6 19 4 9 -1 28 2 42 7 19 8 12 10 -38 10
-62 1 -63 2 -63 29 0 48 -11 72 -34 73 -20 2 -20 2 2 6 19 4 22 10 22 58 0 50
-2 54 -25 57 -20 2 -22 6 -14 18 8 11 12 12 16 3 2 -7 9 -13 15 -13 10 0 3
235 -8 251 -2 3 -36 0 -76 -8 -40 -7 -83 -11 -95 -8 -13 3 -23 2 -23 -2 0 -5
-12 -9 -27 -9 -16 -1 -58 -3 -95 -5 -44 -3 -71 0 -80 9 -6 6 -20 12 -30 12
-10 0 -18 4 -18 9 0 4 10 8 22 7 11 0 23 5 26 13 4 11 -2 13 -27 8 -40 -8 -40
-1 2 18 17 8 22 12 10 9 -13 -3 -23 -1 -23 5 0 6 8 11 18 12 14 0 14 2 -3 9
-19 8 -18 11 8 14 6 1 11 7 10 13 -3 15 30 22 111 22 38 0 71 3 74 6 3 3 -7 5
-21 5 -18 0 -27 5 -27 16 0 13 7 15 43 10 114 -18 134 -18 150 -2 19 19 27 20
27 3 0 -7 10 -14 23 -15 66 -8 72 -7 71 10 -3 30 25 30 32 0 10 -46 12 -48 13
-9 1 36 2 37 36 37 33 0 35 -2 36 -32 0 -18 4 -42 9 -53 6 -15 9 -5 9 35 l1
56 36 2 c20 2 43 0 53 -3z m-2919 -66 c0 -6 9 -8 23 -3 29 10 81 6 85 -6 2 -6
10 -3 19 5 13 14 18 14 47 -4 17 -11 38 -30 46 -43 l15 -23 -28 18 c-21 14
-51 19 -115 20 -80 2 -87 0 -89 -18 -2 -11 0 -14 3 -7 3 7 25 12 55 12 32 0
49 -4 50 -12 0 -10 2 -10 6 0 11 27 77 5 111 -36 11 -14 12 -14 12 2 0 23 44
18 48 -6 3 -15 -4 -18 -35 -18 -21 0 -47 7 -57 15 -28 21 -233 21 -283 0 -41
-17 -63 -19 -63 -5 0 6 5 10 11 10 7 0 18 8 25 18 9 11 13 12 14 4 0 -18 60
14 60 32 0 11 -13 8 -57 -9 -31 -13 -64 -30 -75 -39 -21 -18 -38 -21 -38 -6 0
6 4 10 9 10 4 0 20 11 35 25 15 14 36 25 46 25 10 0 22 5 26 11 7 12 62 38 82
39 6 0 12 -5 12 -11z m106 -110 c4 -8 9 -7 14 1 16 26 110 -23 110 -56 0 -12
-5 -11 -26 5 -23 18 -39 21 -108 19 -51 -1 -64 -3 -36 -5 24 -3 48 -10 53 -16
7 -9 10 -9 14 1 7 18 21 15 64 -15 48 -35 54 -62 7 -33 -27 16 -51 20 -128 20
-52 0 -111 -4 -129 -10 -32 -9 -61 -3 -33 7 6 3 10 9 6 14 -3 5 4 9 16 9 11 0
30 6 41 13 17 10 23 10 26 0 3 -7 9 -13 14 -13 4 0 6 7 2 16 -4 12 -15 15 -42
11 -20 -3 -44 -8 -53 -12 -11 -4 -18 -3 -18 5 0 6 14 17 30 23 17 6 30 14 30
18 0 11 139 9 146 -2z m-1086 -119 c0 -48 -7 -51 -132 -50 -31 0 -48 -4 -48
-12 0 -14 -23 17 -33 44 -9 26 20 48 64 48 34 0 39 -3 40 -22 0 -15 2 -18 6
-8 11 31 26 40 64 40 39 0 39 0 39 -40z m980 19 c0 -8 5 -8 15 1 12 10 18 10
29 1 10 -8 16 -9 21 -1 8 14 45 13 45 -1 0 -8 5 -8 15 1 18 15 60 1 94 -31 12
-11 21 -15 21 -9 0 15 42 8 48 -7 5 -18 -58 -17 -94 1 -15 8 -32 12 -38 9 -5
-4 5 -13 22 -22 18 -8 32 -19 32 -23 0 -5 5 -6 10 -3 6 3 10 -1 10 -9 0 -18
-16 -21 -25 -6 -3 6 -52 10 -111 10 -97 0 -104 -1 -89 -16 12 -12 19 -13 29
-5 18 15 148 9 154 -7 2 -7 12 -12 23 -12 12 0 19 -7 19 -19 0 -18 -2 -19 -27
-5 -33 16 -236 20 -277 4 -23 -8 -26 -7 -26 12 0 12 3 18 7 15 3 -4 13 -1 22
7 9 8 25 17 36 20 11 3 1 3 -22 1 -39 -5 -43 -3 -43 17 0 19 2 20 10 8 6 -9
10 -10 10 -3 0 6 14 14 31 18 20 5 28 10 21 17 -6 6 -17 6 -30 -1 -28 -15 -42
-14 -42 4 0 9 6 12 15 9 8 -4 15 -1 15 5 0 6 9 11 19 11 11 0 23 5 26 10 8 14
25 13 25 -1z m-5156 -216 c6 -14 9 -15 16 -4 6 11 20 12 57 6 26 -4 78 -6 116
-5 59 1 67 -1 67 -17 0 -12 3 -14 8 -6 14 22 59 23 81 1 17 -15 25 -17 36 -8
7 6 26 9 42 6 15 -2 31 -5 34 -5 4 -1 10 -8 13 -17 6 -15 0 -16 -51 -9 -83 10
-249 23 -383 30 -137 6 -160 11 -160 30 0 23 115 21 124 -2z m5146 -58 c0 -8
7 -15 15 -15 8 0 15 7 15 15 0 9 9 15 25 15 16 0 25 -6 25 -15 0 -8 5 -15 10
-15 6 0 10 7 10 15 0 8 5 15 10 15 6 0 10 -7 10 -15 0 -21 20 -19 21 3 1 15 2
15 6 -1 5 -18 5 -18 19 0 11 15 13 15 14 3 0 -11 9 -16 28 -15 15 0 30 -6 34
-15 5 -12 7 -12 7 3 1 11 9 17 26 17 26 0 30 -7 17 -27 -8 -13 -9 -13 -182 -8
-63 2 -109 2 -102 -1 6 -3 10 -10 6 -15 -3 -5 31 -9 80 -9 46 0 96 -4 110 -9
17 -7 26 -7 30 2 2 7 5 2 5 -10 1 -20 -1 -21 -36 -11 -21 6 -95 8 -165 6
l-128 -4 0 32 c0 32 13 44 51 44 10 0 19 7 19 15 0 8 5 15 10 15 6 0 10 -7 10
-15z m10 -165 c0 -5 7 -10 15 -10 8 0 15 5 15 10 0 6 9 10 20 10 11 0 20 -4
20 -9 0 -5 34 -11 76 -13 72 -3 102 -17 88 -40 -3 -5 6 -6 20 -2 21 5 26 3 26
-12 0 -18 -11 -19 -190 -19 l-190 0 0 35 c0 32 3 35 32 37 18 2 34 7 36 13 5
13 32 13 32 0z m4530 -53 c0 -10 18 -11 88 -5 48 5 104 6 125 3 26 -4 37 -1
38 7 0 7 2 8 5 3 2 -6 36 -9 83 -7 72 4 80 2 90 -16 6 -12 8 -23 4 -25 -5 -2
-44 -5 -88 -5 -44 -1 -137 -4 -207 -7 -116 -4 -128 -3 -129 13 -1 16 -2 16 -6
0 -7 -27 -79 -25 -93 2 -9 17 -7 22 12 29 15 5 26 5 30 -3 5 -7 8 -5 8 7 0 10
8 17 20 17 11 0 20 -6 20 -13z m938 -49 c9 -9 15 -9 24 0 14 14 98 16 98 2 0
-5 -21 -10 -47 -10 -25 0 -44 -3 -40 -6 3 -4 23 -6 44 -6 31 1 39 -3 40 -19 2
-17 -8 -24 -30 -20 -5 1 -25 -4 -44 -11 -32 -12 -36 -11 -53 10 -25 30 -56 29
-64 -4 -9 -33 -51 -31 -50 3 0 18 -5 21 -30 18 -43 -3 -46 -4 -45 -12 4 -24
-4 -33 -26 -33 -19 0 -25 5 -26 23 -1 17 -2 18 -6 4 -3 -10 -10 -16 -16 -14
-7 2 -28 -2 -47 -10 -28 -11 -36 -12 -45 -1 -12 16 -60 12 -91 -8 -12 -8 -24
-11 -27 -7 -10 16 0 75 14 84 8 5 48 8 89 8 41 0 86 2 98 5 14 3 34 -2 47 -10
15 -10 40 -14 72 -11 l48 3 -52 2 c-92 3 -58 21 37 20 50 0 93 2 97 6 9 9 18
7 31 -6z m-5275 -14 c58 -10 43 -25 -18 -18 -53 6 -55 6 -55 -17 0 -22 1 -22
14 -4 12 17 14 17 22 2 11 -19 66 -26 86 -10 9 8 16 8 25 -2 14 -15 7 -25 -19
-25 -10 0 -22 -8 -25 -17 -6 -15 -7 -15 -14 3 -7 17 -8 17 -8 -3 -1 -14 5 -23
13 -23 8 0 17 -3 19 -7 3 -5 -71 -8 -164 -8 -108 0 -168 4 -166 10 2 6 30 12
63 15 85 7 84 30 -2 30 -41 0 -63 4 -59 10 3 6 18 10 32 10 14 0 32 8 39 18
13 16 13 16 14 -3 0 -17 2 -17 10 -5 6 10 10 11 10 3 0 -7 9 -13 20 -13 11 0
20 5 20 10 0 6 7 10 15 10 8 0 15 5 15 10 0 6 -9 10 -20 10 -11 0 -20 -4 -20
-10 0 -5 -5 -10 -11 -10 -5 0 -7 5 -3 12 5 8 -11 9 -62 4 -44 -4 -65 -4 -59 3
6 5 19 11 30 14 30 7 215 8 258 1z m3617 -9 c0 -8 -8 -15 -17 -15 -23 0 -49
-17 -40 -26 3 -4 12 -2 20 4 20 17 70 8 80 -15 10 -22 47 -21 82 3 18 13 15
14 -29 14 -27 0 -47 2 -44 5 3 3 72 7 154 9 82 2 133 1 114 -1 -46 -6 -63 -23
-24 -24 23 -1 25 -2 9 -7 -11 -4 -20 -16 -20 -26 0 -29 -19 -30 -46 -2 -31 33
-45 33 -53 0 -6 -23 -11 -25 -39 -20 -85 15 -97 16 -97 6 0 -5 -7 -10 -15 -10
-8 0 -15 5 -15 11 0 8 -4 8 -14 0 -8 -7 -17 -8 -20 -3 -3 5 -17 7 -31 4 -24
-4 -25 -3 -25 47 0 29 3 50 8 48 4 -3 16 -1 27 4 30 11 35 11 35 -6z m1050 4
c0 -4 -14 -9 -32 -11 -37 -3 -48 -23 -18 -31 12 -3 24 1 30 11 8 14 9 12 10
-9 0 -22 -5 -26 -26 -26 -14 0 -30 -5 -35 -10 -7 -7 -22 -6 -46 2 -37 13 -73
10 -73 -6 0 -5 -9 -9 -20 -9 -11 0 -20 5 -20 11 0 11 -35 9 -87 -7 -20 -6 -23
-3 -23 26 0 52 14 58 143 57 65 0 119 2 121 4 8 7 76 6 76 -2z m-2112 -8 c30
-1 32 -3 32 -36 0 -19 -5 -35 -11 -35 -5 0 -8 4 -5 9 7 11 -25 20 -44 12 -16
-6 -24 -41 -9 -41 5 0 9 7 9 16 0 8 5 12 10 9 6 -4 8 -9 6 -13 -2 -4 15 -8 37
-8 63 -2 87 -7 87 -19 0 -5 5 -3 10 5 8 12 10 11 10 -7 0 -20 -3 -21 -32 -12
-50 14 -68 11 -68 -10 0 -25 16 -36 24 -16 3 8 13 14 23 14 17 -1 17 -2 1 -6
-28 -7 -21 -20 10 -21 15 0 35 7 44 15 15 13 18 12 27 -5 7 -13 8 -29 2 -44
-7 -17 -10 -19 -10 -5 -1 13 -10 17 -38 18 -21 0 -48 2 -60 5 -14 2 -23 -1
-23 -9 0 -17 13 -32 28 -33 27 -2 32 -4 32 -15 0 -7 -10 -9 -25 -7 -24 5 -25
3 -25 -38 0 -24 5 -44 11 -44 5 0 8 -4 5 -9 -3 -5 -22 -7 -41 -4 -25 3 -35 1
-35 -9 0 -10 21 -15 83 -17 45 -1 93 -4 107 -6 14 -1 35 -3 48 -4 15 -1 22 -7
22 -21 0 -16 7 -20 35 -20 23 0 35 -5 35 -14 0 -12 -24 -14 -132 -11 -150 4
-204 -1 -212 -21 -4 -10 8 -12 58 -7 76 7 327 -14 341 -29 7 -7 -7 -9 -45 -4
-30 4 -113 9 -185 12 -179 7 -328 23 -337 37 -6 9 -8 9 -8 0 0 -7 -11 -13 -25
-13 -18 0 -25 5 -25 20 0 11 -4 20 -9 20 -5 0 -11 -9 -14 -20 -6 -23 -25 -26
-33 -5 -5 13 -8 13 -21 0 -14 -15 -61 -20 -135 -16 -25 1 -38 -3 -39 -11 -1
-27 -18 29 -18 63 -1 33 2 37 29 42 16 4 129 7 250 7 184 1 220 4 220 16 0 8
-7 14 -16 14 -12 0 -15 6 -10 26 5 17 3 25 -6 23 -28 -3 -48 1 -48 12 0 6 12
9 28 7 26 -3 27 -2 29 50 1 51 1 52 -28 52 -20 0 -29 5 -29 16 0 14 3 14 15 4
12 -10 15 -10 16 1 0 10 2 11 6 2 10 -27 20 -11 17 30 -1 23 -3 43 -3 45 -1 1
-1 5 -1 10 1 4 -14 10 -32 13 l-33 6 32 8 c20 4 30 12 26 20 -3 9 2 12 14 10
10 -2 33 -4 51 -4z m1555 -19 c9 -8 33 -12 59 -9 l43 4 -47 1 c-27 1 -48 6
-48 11 0 6 43 9 98 9 67 -1 86 -3 59 -8 -43 -8 -60 -20 -29 -20 27 0 28 -14 2
-42 -16 -17 -23 -19 -32 -10 -15 15 -70 16 -86 0 -9 -9 -17 -9 -35 1 -27 14
-33 48 -9 54 9 3 -2 5 -25 6 -23 0 -45 -3 -48 -9 -3 -5 1 -10 9 -10 21 0 5
-44 -18 -48 -12 -3 -16 4 -16 28 0 17 5 36 11 43 15 16 92 15 112 -1z m-5083
-117 c0 -29 -26 -35 -33 -7 -3 9 -5 -19 -6 -63 l-1 -80 128 8 c70 4 151 5 180
2 44 -5 52 -10 52 -27 0 -20 -4 -20 -80 -14 -51 5 -80 4 -80 -2 0 -6 6 -12 13
-15 6 -2 9 -8 5 -12 -5 -5 -16 -1 -26 8 -24 22 -32 21 -33 0 -1 -17 -2 -17 -6
-1 -5 21 -31 30 -113 37 l-65 6 3 73 c3 64 1 72 -15 72 -15 0 -16 2 -3 10 11
7 3 10 -30 9 -34 0 -40 -2 -25 -9 18 -8 18 -9 2 -9 -16 -1 -18 -9 -15 -58 3
-54 5 -58 26 -55 15 2 22 -2 22 -13 0 -13 -6 -16 -25 -11 -17 4 -25 2 -26 -6
0 -7 -4 -4 -9 7 -5 11 -6 48 -3 83 3 34 2 62 -3 63 -5 1 -26 2 -46 3 l-38 3 0
-84 c0 -49 -4 -83 -10 -83 -6 0 -10 33 -10 80 l0 80 -40 0 -40 0 -1 -62 c-1
-100 -17 -118 -18 -20 l-1 82 -32 0 c-22 0 -29 3 -19 9 7 5 74 9 149 10 75 1
138 4 141 6 2 3 33 5 68 5 61 0 63 -1 63 -25z m1008 -5 c2 -5 14 -3 28 6 22
15 24 15 30 0 10 -26 -2 -30 -81 -29 -47 1 -75 -2 -75 -9 0 -6 11 -8 25 -6 14
3 30 -1 37 -9 6 -8 17 -12 25 -9 7 3 13 4 13 2 0 -3 3 -11 6 -20 5 -12 0 -13
-23 -7 -15 4 -46 4 -68 0 -81 -16 -251 -7 -239 12 3 5 14 9 25 9 14 0 19 5 17
18 -2 10 -11 16 -21 14 -9 -2 -17 2 -17 8 0 5 8 10 18 10 10 0 22 3 25 6 4 4
45 6 92 5 54 -1 85 2 85 8 0 14 94 5 98 -9z m-3794 -59 c15 -1 16 -4 6 -16 -7
-8 -22 -15 -34 -16 -18 0 -18 -2 -4 -7 22 -9 9 -31 -17 -29 -16 2 -21 -5 -23
-31 -3 -31 -5 -32 -43 -30 -21 2 -39 7 -39 11 0 5 -4 5 -10 2 -23 -14 -7 -25
38 -27 l47 -2 -47 -3 c-51 -4 -67 -20 -20 -20 15 0 45 -3 67 -6 22 -4 32 -4
23 -1 -35 11 -14 43 27 41 33 -2 69 -27 47 -35 -6 -2 -12 -10 -12 -17 0 -7 -5
-15 -11 -17 -6 -2 5 -9 25 -15 20 -6 36 -7 36 -2 0 5 20 9 45 9 31 0 47 5 54
18 6 9 11 11 11 5 0 -14 50 -14 50 -1 0 4 4 8 10 8 5 0 7 -7 4 -15 -4 -8 -11
-15 -18 -15 -7 0 -10 -14 -8 -40 3 -26 0 -40 -8 -40 -6 0 -8 5 -5 10 3 6 1 10
-4 10 -6 0 -12 -8 -12 -17 -1 -17 -2 -17 -6 0 -2 9 -11 17 -19 17 -12 0 -12
-4 -4 -20 10 -19 8 -20 -43 -20 l-54 0 -7 40 c-6 37 -22 56 -23 28 -1 -7 -6
-27 -11 -45 -6 -17 -8 -34 -5 -37 3 -3 41 -2 84 1 l79 6 0 -66 c0 -50 -4 -66
-16 -71 -20 -8 -64 3 -64 16 0 5 -5 6 -10 3 -6 -4 -8 -11 -5 -16 4 -5 1 -9 -4
-9 -6 0 -11 7 -11 15 0 8 -3 14 -7 13 -5 0 -16 2 -26 7 -18 8 -61 -21 -52 -35
3 -4 -18 -10 -45 -14 -38 -5 -48 -10 -44 -21 4 -10 0 -15 -10 -15 -9 0 -21 10
-26 23 -5 12 -9 16 -9 8 -1 -8 -4 -11 -7 -8 -4 3 -15 2 -25 -4 -11 -6 -19 -6
-19 0 0 5 -16 11 -35 13 -19 2 -35 0 -35 -4 0 -4 6 -8 13 -9 17 -1 -33 -17
-58 -18 -17 -1 -17 1 -5 9 13 9 13 11 1 19 -8 5 -20 7 -28 4 -7 -3 -13 1 -13
10 0 8 6 18 13 20 6 3 -1 6 -18 7 -294 13 -289 12 -293 36 -2 16 -10 19 -49
15 -33 -2 -44 0 -38 9 4 6 16 10 26 7 11 -3 19 -1 19 5 0 6 7 8 15 5 8 -4 17
-2 20 3 5 9 46 14 195 26 47 4 101 8 120 10 19 2 96 4 170 5 122 1 129 2 67 9
-79 10 -88 15 -61 35 16 12 17 14 3 15 -24 0 -27 15 -26 109 0 61 4 84 14 88
8 3 19 1 26 -6 8 -8 8 -11 -1 -11 -7 0 -12 -4 -12 -8 0 -11 58 -3 66 9 3 5 14
9 24 9 20 0 44 32 33 44 -3 3 -21 6 -39 6 -39 0 -64 9 -64 22 0 5 30 7 73 4
39 -2 80 -5 91 -5z m3728 -90 c2 -5 23 -11 48 -13 52 -4 60 -22 13 -26 -21 -2
-33 -9 -33 -18 0 -13 -3 -13 -17 2 -12 11 -18 13 -21 5 -3 -9 -8 -9 -20 1 -12
10 -16 10 -19 0 -3 -6 -10 -9 -16 -5 -22 14 -42 12 -54 -4 -12 -15 -14 -15
-31 0 -22 20 -59 17 -73 -4 -5 -8 -9 -9 -9 -3 0 6 -26 17 -57 25 l-58 14 60 6
c33 4 107 8 165 9 83 2 95 4 60 10 l-45 7 52 1 c28 1 53 -2 55 -7z m5869 -1
c42 0 49 -3 49 -20 0 -11 -5 -20 -11 -20 -6 0 -9 7 -5 15 3 8 1 15 -4 15 -6 0
-10 -13 -10 -30 0 -16 4 -30 8 -30 5 0 9 -7 9 -15 0 -25 -31 -12 -37 15 -4 17
-8 21 -14 12 -4 -6 -16 -12 -27 -12 -10 0 -19 -6 -19 -13 0 -7 -9 -18 -20 -24
-15 -10 -22 -10 -32 0 -7 6 -26 12 -41 12 -23 1 -29 -4 -34 -27 -3 -15 -10
-28 -15 -28 -6 0 -8 7 -5 14 4 9 -1 17 -11 21 -14 4 -17 13 -14 40 5 40 22 37
22 -3 1 -24 2 -25 14 -10 7 10 16 15 19 12 3 -4 5 7 4 22 -2 25 -7 29 -34 29
-18 0 -38 6 -45 13 -11 11 -6 13 29 11 23 -2 46 0 50 5 4 4 35 5 67 2 32 -3
81 -6 107 -6z m-7007 -98 c7 -20 40 -20 52 0 3 5 -5 6 -20 2 -16 -4 -26 -2
-26 5 0 6 13 11 29 11 28 0 30 -2 35 -52 13 -126 16 -278 6 -278 -5 0 -10 -7
-10 -15 0 -8 -4 -15 -10 -15 -14 0 -12 17 6 44 15 24 5 44 -16 31 -5 -3 -10 3
-10 14 0 12 7 21 15 21 8 0 15 7 15 15 0 9 -6 12 -15 9 -10 -4 -15 0 -15 15 0
12 6 21 14 21 9 0 13 10 11 33 -2 17 -3 46 -4 62 -1 24 -5 31 -22 31 -21 0
-22 -2 -15 -134 4 -81 4 -132 -2 -128 -5 3 -10 38 -11 78 0 40 -4 108 -7 151
l-7 77 -51 0 -51 0 6 -97 c4 -54 7 -125 7 -158 0 -56 -1 -58 -8 -20 -4 22 -6
43 -4 47 3 4 -5 12 -16 18 -24 13 -27 40 -4 40 14 0 16 11 12 82 -3 49 -10 84
-16 86 -29 9 -7 17 57 20 62 3 70 1 75 -16z m6482 -17 c-4 -10 -1 -15 9 -13 7
2 15 -1 17 -7 5 -15 -141 -19 -158 -4 -32 26 -424 -13 -654 -66 -59 -14 -126
-25 -147 -24 -30 1 -18 6 57 24 198 49 434 82 680 95 80 4 158 8 174 8 22 2
27 -2 22 -13z m-1269 -105 c-3 -13 0 -20 9 -20 8 0 14 -4 14 -10 0 -16 -27
-12 -34 5 -6 17 -62 20 -86 5 -13 -9 -13 -10 0 -10 13 0 13 -1 0 -10 -22 -14
-33 -12 -27 4 7 18 -15 27 -34 15 -10 -6 -10 -9 -1 -9 6 0 12 -7 12 -15 0 -8
9 -15 20 -15 20 0 27 -14 11 -24 -17 -11 -221 -17 -221 -7 0 5 5 13 12 17 8 5
6 10 -8 15 -11 4 23 8 79 8 95 1 97 2 85 21 -16 25 -28 26 -29 3 -1 -17 -2
-17 -6 0 -5 19 -18 22 -28 7 -4 -6 -14 -5 -27 3 -16 9 -22 9 -25 0 -6 -18 -23
-16 -23 2 0 12 15 15 73 16 143 3 187 6 194 12 3 4 15 7 26 7 14 0 18 -5 14
-20z m-4046 -59 c63 -28 77 -31 238 -37 98 -4 167 -11 159 -15 -7 -5 26 -9 79
-9 64 0 93 4 96 13 3 6 6 -3 6 -20 1 -36 16 -42 47 -18 19 15 19 15 -2 33 -25
21 -27 52 -5 69 21 16 51 16 51 1 0 -9 4 -8 10 2 6 9 10 10 10 3 0 -6 -5 -15
-10 -18 -7 -4 -3 -14 10 -25 24 -21 27 -45 4 -36 -13 5 -15 0 -9 -34 l7 -40
-59 0 c-41 0 -54 -3 -43 -10 8 -5 29 -10 46 -10 23 0 33 -5 37 -20 3 -11 1
-20 -4 -20 -5 0 -9 7 -9 16 0 13 -7 15 -35 11 -20 -3 -35 -2 -35 4 0 6 -4 7
-10 4 -5 -3 -15 -3 -21 1 -8 5 -8 9 1 14 7 5 1 7 -16 6 -16 -1 -35 -5 -42 -10
-7 -4 -16 -5 -19 -2 -4 3 -1 6 5 6 7 0 12 5 12 11 0 5 -4 8 -10 4 -5 -3 -21
-3 -36 1 -22 6 -24 8 -10 16 9 5 16 14 16 19 0 6 -4 8 -9 4 -5 -3 -12 -1 -16
5 -8 13 -35 13 -35 0 0 -5 7 -7 15 -4 8 4 15 1 15 -5 0 -6 -4 -11 -10 -11 -5
0 -10 -7 -10 -15 0 -8 -8 -15 -17 -15 -15 0 -16 -2 -3 -10 10 -7 -14 -10 -76
-10 -90 0 -92 0 -97 25 -3 18 2 30 15 39 18 13 17 14 -8 14 -23 0 -25 -3 -20
-29 3 -16 2 -29 -3 -29 -5 0 -11 14 -14 30 -9 43 -34 38 -47 -10 -6 -22 -17
-40 -24 -40 -18 0 -9 51 12 68 14 10 12 12 -11 12 -24 0 -27 -4 -27 -35 0 -26
-4 -35 -16 -35 -13 0 -15 8 -12 35 l4 35 -72 0 c-49 0 -74 -4 -77 -12 -4 -10
-7 -10 -18 0 -7 6 -25 12 -39 12 -24 0 -26 -4 -26 -35 1 -21 6 -35 14 -35 6 0
12 -4 12 -10 0 -5 -11 -10 -25 -10 -18 0 -25 5 -25 19 0 11 -6 22 -12 25 -10
5 -10 7 0 12 24 11 13 34 -18 34 -20 0 -30 -5 -30 -15 0 -8 7 -15 15 -15 8 0
15 -4 15 -10 0 -5 -7 -10 -15 -10 -8 0 -15 -7 -15 -16 0 -8 -4 -12 -10 -9 -5
3 -10 22 -10 41 0 31 -2 34 -30 34 -30 0 -30 -1 -24 -40 5 -33 4 -40 -10 -40
-9 0 -16 8 -16 20 0 11 -7 20 -16 20 -8 0 -12 -4 -9 -10 3 -5 -1 -10 -9 -10
-9 0 -16 5 -16 11 0 6 -9 8 -20 4 -15 -5 -18 -3 -14 9 5 12 17 15 48 14 34 -3
41 0 40 15 -1 13 6 17 32 17 19 0 34 4 34 8 0 5 10 14 23 20 19 9 16 11 -24
11 -41 1 -45 3 -44 24 1 19 8 22 45 25 44 3 71 -15 47 -30 -8 -5 -6 -8 7 -8
21 0 123 48 132 62 3 5 11 2 17 -6 7 -9 42 -29 78 -45z m5069 36 c30 -2 36 -7
45 -35 7 -26 14 -32 37 -32 26 0 28 3 22 26 -5 20 -3 25 7 22 8 -3 13 -10 12
-16 -3 -11 100 -26 160 -23 29 1 37 -2 37 -16 0 -15 1 -15 13 2 12 15 21 17
58 11 24 -4 61 -8 81 -7 21 0 40 -5 43 -10 4 -5 -13 -9 -38 -9 -24 0 -65 -3
-90 -6 -40 -6 -46 -10 -51 -35 -7 -36 -36 -40 -36 -5 0 13 6 27 13 29 6 3 -14
6 -45 6 -50 1 -57 -1 -51 -16 5 -12 2 -15 -10 -10 -9 3 -16 3 -16 -1 1 -4 1
-15 0 -24 -2 -28 -21 -21 -21 7 0 16 -6 25 -16 25 -12 0 -15 -6 -10 -25 4 -14
2 -25 -4 -25 -5 0 -10 11 -10 24 0 22 -4 24 -52 24 -29 1 -66 -4 -82 -11 -23
-8 -31 -8 -34 1 -2 7 -8 12 -13 12 -6 0 -7 -4 -4 -10 3 -5 1 -10 -4 -10 -6 0
-11 5 -11 11 0 6 -8 8 -18 4 -11 -3 -30 3 -47 17 l-28 21 12 -22 c11 -20 11
-22 -6 -13 -10 5 -32 9 -49 8 -25 -1 -30 2 -26 17 5 19 32 24 32 5 0 -10 2
-10 8 -1 4 6 19 15 35 18 15 4 24 11 21 16 -3 5 2 9 10 9 9 0 16 5 16 11 0 6
9 9 20 6 11 -3 18 -2 15 3 -3 4 2 11 11 14 8 3 12 10 9 16 -3 5 0 8 7 5 7 -3
29 -6 48 -8z m-5690 -74 c0 -13 -4 -23 -10 -23 -5 0 -10 -11 -10 -25 0 -21 -5
-25 -29 -25 -16 0 -32 6 -34 13 -3 6 -6 3 -7 -8 -1 -20 -1 -20 -15 -1 -8 11
-15 14 -15 8 0 -7 -7 -12 -15 -12 -9 0 -15 9 -15 24 0 33 -10 57 -21 50 -12
-7 -11 -64 1 -64 6 0 10 -7 10 -15 0 -9 6 -15 13 -14 6 1 48 0 92 -1 44 -2 65
-5 46 -7 -25 -3 -31 -7 -21 -13 8 -5 11 -12 7 -16 -4 -4 -16 1 -27 11 -11 10
-23 15 -27 12 -3 -4 -1 -7 5 -7 7 0 12 -7 12 -15 0 -8 -4 -15 -10 -15 -5 0
-10 5 -10 11 0 6 -9 8 -22 4 -17 -6 -20 -4 -15 9 5 13 -2 16 -44 16 -31 0 -48
-4 -44 -10 3 -5 -1 -10 -9 -10 -9 0 -16 -4 -16 -10 0 -5 -4 -10 -10 -10 -16 0
-12 70 5 76 17 7 21 59 5 69 -27 17 11 24 115 22 112 -2 115 -3 115 -24z
m1990 -32 c-9 -18 -8 -21 9 -21 11 0 22 6 25 13 4 6 4 2 2 -10 -2 -13 0 -23 5
-23 5 0 9 6 9 14 0 15 27 29 40 21 5 -3 11 -1 15 5 3 5 -2 10 -12 10 -14 0
-15 2 -4 9 8 5 23 7 35 5 11 -2 23 1 26 7 10 15 41 -1 38 -20 -2 -10 4 -16 17
-16 11 -1 19 -6 18 -13 -2 -7 6 -12 17 -12 11 0 20 7 20 15 0 8 7 15 15 15 8
0 15 -4 15 -9 0 -5 11 -8 25 -8 14 0 25 4 25 9 0 5 3 7 8 4 4 -2 26 -1 50 4
31 5 42 4 42 -5 0 -7 11 -15 25 -17 14 -3 25 -1 25 4 0 5 5 6 10 3 6 -3 10 -1
10 4 0 15 37 14 43 -1 4 -10 7 -10 14 -1 7 10 15 9 37 -2 27 -14 28 -14 23 5
-7 26 5 26 21 0 7 -11 20 -20 30 -21 10 0 6 -4 -9 -9 -15 -4 -62 -6 -105 -5
-49 2 -82 -1 -86 -8 -4 -7 -12 -5 -23 6 -9 10 -22 14 -28 10 -6 -3 -99 -8
-206 -9 -145 -2 -197 0 -203 9 -5 8 -8 4 -8 -10 0 -13 -4 -23 -8 -23 -10 0
-33 61 -26 71 3 5 0 9 -5 9 -6 0 -11 4 -11 10 0 5 6 7 14 4 8 -3 18 0 22 7 13
21 17 -7 4 -30z m-4480 -30 c0 -5 9 -11 21 -14 12 -3 18 -10 15 -15 -3 -6 9
-10 28 -9 19 0 33 4 30 8 -2 4 0 10 5 13 5 3 11 -3 14 -14 3 -11 2 -22 -1 -24
-15 -8 -232 -4 -226 5 3 5 0 9 -5 9 -6 0 -11 -4 -11 -10 0 -10 -235 -13 -277
-3 -53 12 -5 20 107 18 110 -1 120 0 120 17 0 10 3 18 6 18 12 0 33 -28 26
-35 -4 -3 7 -4 23 0 82 19 105 27 105 35 0 6 5 10 10 10 6 0 10 -4 10 -9z
m8322 -98 c70 -3 125 -10 122 -15 -3 -4 -10 -6 -15 -3 -5 4 -17 1 -26 -4 -13
-8 2 -11 62 -11 44 0 87 -5 95 -11 10 -7 -40 -9 -168 -7 -100 2 -182 0 -182
-4 0 -5 8 -8 18 -9 14 0 14 -2 -3 -9 -17 -7 -16 -9 10 -10 53 -2 -3 -19 -67
-19 -47 -1 -56 2 -52 14 5 12 -4 15 -42 16 -40 1 -44 3 -24 9 28 9 17 12 -50
16 -68 3 -70 3 -70 14 0 6 27 10 61 10 34 0 58 4 54 9 -12 20 74 25 277 14z
m-2350 -13 c-48 -11 -51 -20 -6 -21 21 0 62 -7 89 -14 l50 -13 -42 -1 c-23 0
-45 -6 -49 -12 -5 -9 1 -10 20 -5 19 5 26 3 26 -9 0 -8 -6 -15 -14 -15 -8 0
-17 -7 -20 -16 -3 -8 -10 -13 -15 -9 -5 3 -12 1 -15 -4 -4 -5 2 -12 11 -14 11
-3 5 -5 -12 -6 -20 -1 -26 -4 -17 -10 16 -10 -4 -28 -45 -41 -28 -8 -28 -8 -3
-9 24 -2 24 -2 5 -13 -19 -12 -19 -12 5 -19 l25 -7 -27 -1 c-42 -2 -39 -24 6
-43 41 -17 41 -17 11 -19 l-30 -2 35 -7 c19 -4 27 -8 18 -9 -12 -1 -18 -9 -18
-26 0 -19 -5 -25 -22 -25 -20 0 -18 -3 12 -21 19 -12 36 -23 38 -24 2 -1 0
-15 -4 -29 -4 -18 -11 -25 -20 -22 -23 9 -16 -10 9 -22 l22 -11 -22 0 c-26 -1
-31 -26 -8 -35 20 -7 19 -26 -2 -26 -15 0 -15 -1 0 -18 22 -24 22 -27 -9 -29
-15 0 -30 -7 -35 -15 -7 -10 -9 -9 -9 4 0 14 -4 14 -25 5 -24 -12 -24 -12 -3
-17 12 -3 24 -12 26 -20 3 -8 1 -12 -3 -8 -10 9 -35 -10 -35 -27 0 -7 16 -11
45 -11 45 1 60 -9 28 -17 -14 -4 -12 -5 4 -6 13 0 22 -7 20 -13 -1 -9 9 -12
30 -12 18 1 30 -2 27 -7 -3 -5 -15 -9 -27 -9 -12 0 -30 -7 -39 -14 -16 -11
-11 -14 40 -26 31 -8 49 -15 39 -18 -9 -2 -15 -8 -12 -13 4 -5 1 -9 -4 -9 -6
0 -11 4 -11 10 0 5 -7 6 -17 3 -11 -4 -14 -3 -9 5 4 7 2 12 -3 12 -15 0 -14
-11 4 -31 15 -15 13 -17 -30 -23 -24 -4 -49 -4 -55 -1 -5 3 -10 2 -10 -3 0
-16 29 -22 73 -17 l42 5 -49 -14 c-28 -8 -55 -12 -60 -9 -6 4 -3 -3 7 -14 9
-11 14 -23 10 -27 -5 -4 -1 -6 7 -4 21 4 31 21 17 30 -7 4 -2 6 11 5 17 -1 21
-6 16 -22 -6 -19 -6 -19 13 -2 17 15 22 15 31 4 9 -10 9 -14 -1 -15 -60 -8
-62 -9 -59 -35 2 -21 -1 -24 -18 -20 -14 4 -20 0 -20 -10 0 -9 -10 -18 -22
-20 -20 -4 -19 -4 5 -6 15 0 27 4 27 9 0 6 9 10 20 10 11 0 20 -6 20 -12 0 -7
5 -30 11 -50 8 -31 15 -38 35 -38 20 0 24 -4 19 -19 -5 -16 -2 -19 17 -15 23
5 23 4 -1 -6 -19 -8 -26 -7 -37 7 -12 17 -13 16 -14 -4 0 -17 6 -23 22 -23 32
0 19 -7 -26 -14 -42 -7 -61 -16 -33 -16 9 0 18 1 20 3 8 6 38 -34 32 -43 -3
-6 4 -10 18 -10 20 0 24 -4 20 -20 -3 -11 -10 -20 -17 -20 -6 0 -4 -4 4 -9 8
-6 18 -7 22 -5 4 3 8 -9 8 -25 0 -17 5 -31 11 -31 5 0 7 -5 4 -10 -12 -20 -25
-9 -26 23 -1 23 -3 26 -6 10 -2 -13 -9 -23 -14 -23 -6 0 -8 -4 -4 -9 3 -5 -4
-12 -15 -16 -11 -3 -20 -11 -20 -16 0 -13 18 -11 22 2 2 7 15 6 38 -4 l35 -15
-28 -1 c-26 -1 -27 -2 -13 -17 13 -12 13 -18 3 -29 -6 -7 -14 -12 -17 -12 -3
1 -16 -6 -30 -16 -19 -13 -21 -17 -7 -17 9 0 17 5 17 10 0 6 12 10 28 9 26 0
27 0 4 -10 -13 -5 -21 -13 -18 -17 3 -5 -9 -6 -27 -4 -25 3 -29 2 -21 -8 7 -7
28 -12 48 -12 31 0 35 -2 25 -14 -7 -9 -23 -13 -38 -11 -14 2 -20 2 -13 0 26
-9 11 -22 -20 -18 -29 4 -30 4 -8 -4 14 -5 44 -6 68 -3 30 3 42 1 42 -8 0 -7
-3 -10 -7 -7 -3 4 -13 1 -21 -6 -13 -9 -14 -9 -8 1 9 16 5 15 -30 -3 l-29 -15
28 0 c18 0 26 -4 21 -11 -3 -6 -15 -8 -25 -6 -13 4 -25 -3 -35 -19 -9 -13 -20
-21 -25 -18 -5 3 -9 0 -9 -5 0 -15 11 -13 34 4 11 8 28 15 38 15 10 0 18 4 18
10 0 5 13 8 30 7 35 -2 37 -8 9 -25 -16 -10 -19 -10 -13 -1 5 9 2 10 -10 6
-10 -4 -24 -7 -32 -7 -8 0 -14 -7 -14 -16 0 -8 -4 -13 -9 -9 -5 3 -12 1 -16
-5 -3 -5 3 -10 14 -10 11 0 23 -4 26 -10 3 -5 1 -10 -4 -10 -6 0 -12 -8 -12
-17 -1 -17 -2 -17 -6 0 -2 9 -12 17 -21 16 -11 0 -12 -2 -4 -6 28 -11 8 -18
-55 -18 -41 0 -68 -4 -70 -11 -3 -8 13 -11 48 -10 31 0 54 -4 56 -10 3 -8 -11
-11 -42 -10 -25 1 -45 0 -45 -1 0 -7 39 -41 51 -46 10 -4 9 -6 -3 -6 -11 -1
-18 -9 -18 -22 0 -19 4 -21 38 -15 22 3 42 3 45 -1 8 -7 -42 -35 -52 -29 -3 3
-22 1 -41 -4 -30 -7 -27 -8 23 -6 40 1 57 -2 57 -11 0 -7 10 -14 23 -14 16 -1
17 -3 5 -6 -9 -2 -25 0 -35 5 -11 5 -37 4 -66 -2 l-48 -11 33 -20 c18 -11 44
-23 58 -26 20 -5 17 -7 -15 -8 -23 0 -46 4 -53 11 -8 8 -12 8 -12 1 0 -13 -63
-24 -70 -13 -3 5 -34 11 -68 14 -48 4 -62 2 -59 -7 2 -6 13 -11 23 -9 39 6 95
-5 106 -21 4 -6 26 -12 50 -13 38 -2 41 -1 25 11 -12 8 -14 15 -8 20 6 3 11 1
11 -4 0 -6 7 -11 16 -11 11 0 14 -6 9 -20 -4 -11 -2 -20 4 -20 6 0 11 -4 11
-8 0 -5 -7 -9 -15 -9 -8 0 -15 4 -15 9 0 5 -8 8 -17 6 -10 -2 -17 3 -15 10 4
20 -16 14 -23 -8 -6 -19 -25 -28 -25 -12 0 4 -20 7 -44 7 -24 0 -44 -2 -44 -5
2 -24 -4 -40 -14 -38 -7 2 -12 -2 -11 -9 2 -8 -6 -9 -30 -2 -41 12 -56 11 -37
-1 11 -7 5 -10 -22 -10 -21 0 -38 -5 -38 -11 0 -7 -16 -9 -47 -5 -27 3 -57 6
-68 6 l-20 1 20 12 c11 6 32 10 48 8 15 -1 27 2 27 8 0 6 -8 10 -17 9 -10 -1
-27 0 -37 0 -18 2 -18 3 -2 21 16 18 15 18 -39 17 -30 -1 -55 2 -55 6 0 5 6 8
12 8 7 0 -9 20 -35 44 -30 27 -44 47 -37 51 6 4 17 1 25 -5 16 -14 20 -3 6 19
-5 7 -14 10 -20 6 -7 -4 -18 -2 -25 4 -8 7 -23 7 -47 1 -48 -14 -58 -13 -56 9
0 11 5 17 9 15 4 -3 8 0 8 7 0 7 3 9 6 6 4 -4 1 -13 -6 -22 -10 -12 -10 -15 2
-15 8 0 18 3 22 7 4 5 12 9 17 9 5 1 14 2 19 3 6 0 10 5 10 11 0 5 -8 7 -17 3
-10 -3 -15 -3 -11 2 4 4 18 9 30 10 42 4 43 8 8 15 l-35 7 38 2 c20 0 37 5 37
10 0 5 -10 7 -22 3 -21 -5 -22 -4 -8 13 14 17 14 18 -7 7 -30 -17 -41 -15 -17
3 16 13 17 16 4 25 -13 8 -13 10 3 10 9 0 17 -4 17 -10 0 -5 4 -10 10 -10 5 0
7 7 4 15 -4 8 -15 15 -25 15 -24 0 -26 37 -1 43 9 3 3 5 -15 6 -17 0 -35 5
-38 11 -3 5 0 8 7 7 7 -2 10 -2 6 0 -11 6 -10 33 0 33 4 0 13 -5 20 -12 7 -7
12 -9 12 -4 0 4 -6 14 -14 21 -10 10 -16 11 -25 2 -8 -8 -11 -8 -11 1 0 6 11
14 25 18 14 3 25 12 25 19 0 20 -41 30 -51 14 -6 -10 -9 -8 -9 9 0 14 6 22 18
22 9 1 28 7 42 15 l25 14 -26 1 c-38 0 -43 12 -12 27 l28 13 -32 -5 c-25 -3
-31 -1 -26 10 3 9 18 15 37 15 27 1 29 2 13 11 -11 6 -32 8 -48 5 -16 -3 -29
-1 -29 4 0 6 5 10 11 10 5 0 8 4 5 9 -3 5 1 12 10 15 8 3 13 10 9 15 -3 6 -13
7 -22 4 -11 -4 -14 -3 -9 6 5 7 14 10 20 8 7 -3 19 -1 27 4 10 6 8 9 -10 9
-20 0 -21 2 -11 15 14 16 10 18 -14 9 -9 -3 -13 -10 -10 -15 3 -5 -3 -9 -12
-9 -13 0 -15 3 -7 11 6 6 9 19 5 28 -5 13 -3 14 9 4 15 -12 33 -6 36 12 10 65
6 85 -14 78 -10 -3 -15 -3 -11 2 4 4 0 14 -10 21 -14 11 -14 14 -2 15 8 1 -1
5 -20 9 l-35 7 38 2 c24 1 37 5 35 14 -1 6 4 23 11 36 12 21 11 26 -5 38 -10
7 -12 13 -6 13 17 0 15 17 -4 24 -9 4 -13 2 -8 -5 4 -6 -3 -6 -17 2 -20 11
-21 14 -6 17 24 5 21 20 -5 25 -17 3 -14 5 10 6 34 1 38 7 22 31 -8 12 -10 12
-16 -3 -3 -9 -10 -17 -16 -17 -5 0 -6 5 -2 11 3 6 1 15 -6 19 -7 4 -1 9 18 13
31 6 53 37 26 37 -8 0 -13 4 -9 10 3 5 12 7 20 3 10 -3 15 2 15 16 0 12 -8 25
-17 28 -15 6 -14 8 7 15 19 6 16 7 -12 4 -47 -6 -59 9 -15 18 27 6 29 8 15 17
-10 5 -18 14 -18 19 0 5 8 11 18 13 13 4 11 5 -5 6 -13 0 -23 5 -23 11 0 5 7
7 15 4 8 -4 15 -1 15 5 0 6 -4 11 -10 11 -18 0 -10 18 10 23 26 7 22 38 -8 69
-38 39 -62 58 -74 59 -7 0 -2 6 12 12 14 7 36 21 48 32 11 11 43 27 69 34 l48
14 -42 10 c-24 5 -43 14 -43 18 0 5 -15 9 -34 9 -27 0 -34 4 -32 18 2 9 -2 21
-8 25 -6 4 5 5 25 2 25 -5 39 -2 48 9 11 13 11 17 0 20 -41 13 -43 14 -21 15
12 1 22 6 22 11 0 6 -5 9 -12 8 -7 -2 -12 4 -13 12 0 8 -13 18 -30 21 -21 5
-24 7 -10 9 15 2 12 4 -10 10 -25 6 -26 8 -7 9 19 1 21 3 10 15 -7 8 -16 12
-21 9 -4 -2 -17 -1 -30 3 l-22 8 25 7 25 7 -27 1 c-16 1 -28 6 -28 12 0 7 11
8 30 4 35 -8 38 1 9 26 -22 19 -18 39 7 39 16 0 19 16 4 25 -5 3 2 17 17 31
23 21 25 27 13 34 -8 6 -21 10 -28 10 -7 0 -10 5 -7 10 4 6 11 8 16 5 5 -4 9
-1 9 4 0 6 3 10 8 10 26 -4 41 3 36 16 -4 10 -20 15 -45 15 -21 0 -39 5 -39
10 0 6 44 10 112 10 61 0 109 2 106 5 -3 3 -70 9 -148 13 -88 4 -145 11 -147
18 -2 7 60 11 204 13 114 1 209 4 212 7 3 2 129 4 280 3 152 -1 261 -5 243 -9z
m-2857 -10 c-36 -7 -34 -7 24 -9 64 -1 81 -11 22 -13 -18 -1 -35 -6 -38 -11
-4 -6 0 -8 9 -5 8 4 21 2 29 -3 10 -6 6 -9 -16 -9 -28 -1 -29 -2 -12 -14 18
-14 18 -14 0 -19 -10 -3 5 -6 32 -7 49 -3 50 -3 12 -9 -45 -7 -53 -25 -14 -29
37 -4 34 -19 -5 -31 -20 -5 -25 -10 -13 -10 14 -1 16 -4 7 -13 -7 -7 -8 -17
-2 -28 14 -26 -18 -87 -49 -94 -14 -2 -113 -3 -220 -1 -170 4 -195 7 -208 22
-8 10 -12 12 -8 6 4 -9 -3 -13 -22 -12 -25 0 -26 1 -8 9 18 8 18 9 -5 9 -17 1
-21 4 -12 9 9 7 8 13 -7 26 -11 10 -17 25 -14 34 4 9 2 13 -4 9 -6 -4 -8 3 -6
17 3 16 17 29 41 39 33 14 35 15 12 17 -23 1 -22 3 10 15 32 12 33 14 10 15
-23 1 -22 3 10 15 34 13 34 13 7 14 -25 1 -26 3 -17 21 8 16 21 20 60 20 30 0
50 4 50 11 0 6 -7 8 -16 5 -8 -3 -12 -2 -9 4 4 6 84 9 208 9 117 -1 185 -5
162 -9z m5262 -102 c105 2 163 -1 168 -8 4 -7 -23 -10 -81 -10 -48 0 -85 -2
-82 -5 3 -3 41 -10 84 -14 72 -8 68 -9 -46 -6 -144 4 -141 4 -115 15 16 7 11
9 -20 9 -34 1 -41 -2 -42 -19 -1 -16 5 -20 35 -21 33 -2 34 -2 7 -6 -57 -7
-62 -13 -36 -34 20 -17 33 -19 77 -13 29 3 71 3 95 -1 l42 -7 -32 -14 c-39
-16 -125 -19 -116 -4 11 18 -51 11 -76 -9 -13 -10 -33 -21 -44 -24 -11 -2 0
-6 25 -7 25 -1 37 -4 27 -7 -9 -2 -15 -9 -12 -14 4 -5 0 -9 -7 -9 -7 0 -23 -3
-35 -6 -17 -5 -23 -2 -23 10 0 10 -9 16 -22 16 -22 1 -22 1 -4 15 10 7 15 18
12 23 -9 16 -170 26 -206 14 -20 -7 -56 -8 -108 -2 -57 6 -81 5 -92 -4 -15
-12 -50 -11 -50 2 0 6 -168 6 -245 1 -5 0 -48 3 -95 8 -76 7 -80 8 -40 13 31
3 44 9 42 19 -2 11 24 12 153 7 101 -4 155 -3 155 4 0 6 -53 10 -137 11 -87 0
-131 4 -118 9 19 8 19 9 -3 9 -13 1 -21 5 -18 10 3 4 -7 6 -22 4 -26 -4 -26
-4 -8 11 11 9 24 16 29 16 4 0 5 5 2 10 -4 7 102 10 312 10 307 -1 317 -1 297
-19 -15 -12 -41 -18 -84 -19 -68 -2 -95 -11 -39 -13 l34 -1 -30 -8 -30 -8 35
-1 c19 -1 42 -6 50 -11 11 -7 0 -10 -38 -8 -30 0 -57 7 -63 15 -6 7 -16 13
-21 13 -6 0 -4 -7 3 -17 13 -15 8 -16 -61 -10 -48 4 -69 3 -59 -3 19 -11 457
-25 447 -14 -4 4 -3 13 3 21 9 10 3 13 -32 14 l-44 2 35 7 c19 4 27 8 17 9
-10 0 -16 5 -13 9 3 5 -9 6 -26 4 -21 -3 -29 -1 -24 7 5 7 -1 11 -15 11 -12 0
-19 3 -15 7 8 9 157 21 171 14 6 -3 83 -4 172 -3z m-10511 -238 c22 -7 46 -15
54 -18 21 -7 -100 -24 -127 -17 -12 3 -25 1 -28 -5 -4 -6 -69 -9 -163 -8 -132
1 -152 4 -127 14 25 10 27 12 10 17 -11 2 0 6 25 7 76 4 114 10 123 19 13 13
187 6 233 -9z m9839 -80 c127 -5 365 -14 530 -20 483 -16 425 -30 -105 -25
-314 3 -508 9 -599 19 -74 8 -137 15 -140 14 -38 -4 -131 4 -131 12 0 13 144
13 445 0z m-4699 -77 c13 -13 19 -14 22 -5 2 6 13 12 25 11 21 0 21 -1 2 -9
-11 -5 -16 -9 -11 -9 5 -1 -1 -12 -14 -26 -19 -21 -21 -25 -7 -25 9 0 22 9 29
20 7 11 18 20 25 20 18 0 16 -17 -2 -24 -23 -9 -18 -21 10 -22 14 -1 25 2 25
6 0 4 11 8 25 8 25 0 25 -2 10 -24 -10 -15 -11 -25 -4 -29 6 -4 3 -12 -8 -21
-17 -12 -17 -13 0 -14 19 0 20 -2 11 -24 -3 -9 -13 -16 -22 -16 -13 0 -12 -3
4 -15 18 -15 16 -15 -21 -13 -41 3 -62 -14 -25 -20 11 -2 20 -10 20 -18 0 -8
5 -14 10 -14 6 0 10 5 10 10 0 6 7 10 15 10 12 0 13 -4 5 -19 -7 -14 -21 -20
-52 -20 -71 -2 -96 -6 -105 -15 -4 -4 32 -6 82 -3 50 3 84 3 77 0 -10 -4 -8
-8 5 -18 14 -10 15 -17 7 -25 -13 -13 -7 -87 8 -107 6 -7 5 -14 -2 -18 -8 -5
-7 -11 1 -22 10 -11 10 -16 0 -22 -10 -7 -11 -13 -1 -31 8 -15 8 -20 1 -16 -7
4 -11 -1 -11 -13 0 -12 -6 -21 -12 -21 -7 -1 -2 -10 11 -20 13 -11 18 -20 13
-20 -6 0 -14 -16 -18 -36 -4 -24 -11 -34 -20 -30 -7 3 -16 1 -19 -4 -4 -6 -1
-10 4 -10 6 0 11 -7 11 -16 0 -12 6 -15 25 -10 14 4 25 2 25 -4 0 -8 -47 -15
-97 -13 -7 1 -13 -4 -13 -9 0 -14 -55 -5 -56 10 -1 6 -3 15 -4 20 -1 4 -2 10
-2 13 1 3 -14 3 -31 0 l-32 -5 30 -6 30 -7 -28 -7 c-17 -5 -33 -4 -42 4 -15
13 -15 14 -28 -30 -3 -11 -7 -9 -14 8 -5 13 -12 23 -16 23 -28 -3 -37 1 -37
20 0 16 4 19 18 14 9 -4 23 -10 31 -13 9 -3 12 -1 7 6 -4 7 -15 12 -24 12 -15
1 -15 2 2 15 20 15 16 19 -18 15 -13 -1 -17 3 -13 14 9 22 -6 20 -23 -4 -8
-11 -18 -20 -23 -20 -5 0 -4 7 3 15 7 9 10 18 6 22 -3 3 -17 -6 -30 -22 -13
-15 -30 -25 -37 -22 -10 4 -10 6 2 6 18 1 32 25 22 35 -4 3 -15 6 -25 6 -10 0
-18 5 -18 11 0 8 14 10 40 6 22 -3 40 -1 40 4 0 5 5 9 11 9 5 0 7 -4 4 -10 -3
-6 4 -10 17 -9 13 0 17 3 11 6 -26 10 -13 25 17 20 23 -5 30 -3 30 9 0 12 -7
15 -30 12 -34 -5 -41 7 -9 17 12 4 26 2 32 -4 6 -6 22 -11 37 -10 24 0 24 1
-7 16 -18 9 -33 21 -33 26 0 5 7 4 15 -3 17 -14 31 -8 20 9 -8 14 -42 14 -47
0 -2 -5 -19 -12 -38 -15 -33 -4 -34 -4 -16 11 11 8 26 15 33 15 7 0 10 6 7 15
-5 11 -2 13 10 9 9 -3 16 -1 16 5 0 6 -4 11 -9 11 -5 0 -17 3 -26 6 -10 4 -15
2 -13 -7 2 -7 -5 -15 -15 -17 -10 -2 -16 2 -15 9 3 14 -32 27 -79 28 -23 1
-33 6 -33 17 0 9 -5 12 -12 8 -8 -5 -7 0 2 11 14 17 13 18 -17 12 -40 -8 -43
7 -5 27 25 14 26 15 5 16 -13 0 -23 -3 -23 -7 0 -5 -16 -9 -36 -11 -22 -1 -33
2 -29 8 4 6 10 8 14 5 5 -2 17 5 27 16 15 16 16 21 4 19 -8 -1 -26 -1 -40 0
l-25 2 25 8 c25 8 25 8 2 9 -13 1 -21 5 -18 10 3 5 16 7 28 3 16 -4 19 -2 13
9 -7 11 -6 12 6 2 11 -9 18 -8 33 3 15 10 23 11 33 2 11 -8 12 -7 7 6 -4 11
-1 16 10 16 9 0 16 -5 16 -11 0 -13 25 -39 39 -39 6 0 8 7 4 16 -5 14 -2 16
18 11 13 -3 31 -1 39 4 12 9 11 10 -7 6 -14 -3 -28 3 -40 16 -12 13 -13 17 -3
11 19 -12 90 -13 90 -2 0 5 -4 6 -10 3 -5 -3 -10 -1 -10 4 0 6 12 12 28 13 15
1 36 3 47 4 11 1 29 3 40 4 11 1 2 6 -20 11 -25 6 -50 6 -69 -1 -16 -5 -31
-10 -33 -10 -9 0 23 26 47 38 l25 12 -25 -4 c-14 -2 -33 -7 -42 -11 -13 -5
-18 -3 -18 9 0 12 -8 15 -34 13 -19 -1 -32 -5 -29 -9 2 -5 0 -8 -6 -8 -5 0
-12 6 -15 13 -4 9 -8 9 -11 1 -3 -7 -15 -10 -25 -7 -37 10 -20 18 42 21 34 2
69 8 78 13 11 8 7 9 -17 6 -18 -2 -33 0 -33 5 0 4 8 8 18 8 9 0 13 4 7 8 -18
13 -15 32 6 32 12 0 17 4 13 11 -3 6 -14 9 -24 6 -14 -3 -16 0 -12 17 3 12 1
17 -4 13 -5 -5 -9 -27 -9 -49 0 -23 -5 -43 -11 -45 -16 -5 -23 76 -8 85 6 4
13 13 15 20 3 10 10 9 29 -6 31 -24 69 -33 95 -22 17 7 17 9 3 9 -31 2 -19 21
12 21 17 0 30 -5 30 -12 0 -6 7 -4 18 5 10 10 32 17 48 18 25 0 26 2 9 9 -11
5 -14 9 -7 9 7 1 10 6 7 11 -10 16 2 12 21 -7z m4695 -55 c46 -9 66 -9 96 1
30 10 50 10 84 2 l44 -11 -55 5 c-55 4 -53 -10 3 -17 32 -5 48 -18 21 -18 -10
0 -26 -4 -34 -10 -14 -9 91 -5 118 5 7 3 10 0 7 -5 -10 -17 27 -11 39 6 10 13
19 13 61 4 28 -6 66 -10 85 -10 19 1 40 1 45 0 29 -6 51 -4 58 5 5 6 7 4 4 -5
-2 -8 -17 -18 -33 -21 -35 -8 -15 -12 45 -10 25 1 52 7 60 14 12 9 13 9 7 0
-5 -10 4 -13 36 -12 33 0 38 2 23 9 -13 6 -15 9 -5 9 8 0 26 -6 40 -14 24 -14
22 -14 -35 -16 -33 0 -73 -1 -90 0 -27 1 -28 0 -11 -10 10 -6 64 -15 120 -20
56 -5 117 -13 136 -18 32 -9 30 -10 -20 -6 -215 16 -230 16 -230 5 0 -10 -3
-10 -14 -1 -8 6 -18 11 -22 10 -5 -1 -47 0 -94 1 -70 2 -78 4 -45 10 37 7 36
7 -21 9 -34 0 -83 3 -110 6 -40 3 -43 3 -19 -5 23 -6 10 -8 -51 -7 -62 2 -80
-1 -77 -10 6 -15 -13 -18 -22 -4 -3 6 -46 9 -95 7 -49 -2 -87 1 -84 5 3 5 26
9 52 10 l47 1 -45 10 c-25 5 -49 14 -54 18 -5 5 -18 4 -29 -1 -14 -8 -18 -8
-13 0 4 6 1 11 -6 11 -7 0 -23 3 -36 6 -18 5 -23 3 -20 -9 3 -18 6 -17 -67
-17 -44 0 -53 3 -49 15 4 9 0 15 -10 15 -24 0 -19 17 7 25 21 7 21 7 2 12 -11
2 -27 7 -35 10 -54 21 197 31 291 11z"/>
</g>
</svg>
