<svg xmlns="http://www.w3.org/2000/svg" xmlns:xlink="http://www.w3.org/1999/xlink" width="1128" zoomAndPan="magnify" viewBox="0 0 846 143.249994" height="191" preserveAspectRatio="xMidYMid meet" version="1.0"><defs><g/><clipPath id="295858013f"><path d="M 38 58 L 86 58 L 86 83 L 38 83 Z M 38 58 " clip-rule="nonzero"/></clipPath><clipPath id="f6b2dbce8d"><path d="M 38.953125 74.316406 L 81.976562 58.023438 L 85.089844 66.246094 L 42.066406 82.539062 Z M 38.953125 74.316406 " clip-rule="nonzero"/></clipPath><clipPath id="7270bfd819"><path d="M 38.953125 74.316406 L 81.972656 58.023438 L 85.085938 66.25 L 42.066406 82.539062 Z M 38.953125 74.316406 " clip-rule="nonzero"/></clipPath></defs><g fill="#ffffff" fill-opacity="1"><g transform="translate(135.856049, 101.020185)"><g><path d="M 23.140625 0 L 4.703125 0 L 4.703125 -65.84375 L 22.203125 -65.84375 C 28.097656 -65.84375 32.4375 -64.554688 35.21875 -61.984375 C 38.007812 -59.410156 39.40625 -55.460938 39.40625 -50.140625 L 39.40625 -48.15625 C 39.40625 -41.445312 36.804688 -37.085938 31.609375 -35.078125 L 31.609375 -34.796875 C 37.566406 -32.984375 40.546875 -28.125 40.546875 -20.21875 L 40.546875 -16.84375 C 40.546875 -5.613281 34.742188 0 23.140625 0 Z M 15.421875 -56.34375 L 15.421875 -38.84375 L 20.78125 -38.84375 C 23.476562 -38.84375 25.46875 -39.453125 26.75 -40.671875 C 28.039062 -41.898438 28.6875 -43.832031 28.6875 -46.46875 L 28.6875 -48.90625 C 28.6875 -51.539062 28.148438 -53.4375 27.078125 -54.59375 C 26.015625 -55.757812 24.265625 -56.34375 21.828125 -56.34375 Z M 15.421875 -29.34375 L 15.421875 -9.5 L 23.140625 -9.5 C 25.460938 -9.5 27.15625 -10.078125 28.21875 -11.234375 C 29.28125 -12.398438 29.8125 -14.300781 29.8125 -16.9375 L 29.8125 -20.59375 C 29.8125 -23.851562 29.1875 -26.125 27.9375 -27.40625 C 26.6875 -28.695312 24.492188 -29.34375 21.359375 -29.34375 Z M 15.421875 -29.34375 "/></g></g></g><g fill="#ffffff" fill-opacity="1"><g transform="translate(179.211173, 101.020185)"><g><path d="M 26.53125 -17.125 L 26.53125 -47.78125 L 36.78125 -47.78125 L 36.78125 0 L 27.84375 0 L 27.65625 -6.953125 C 25.644531 -1.691406 21.847656 0.9375 16.265625 0.9375 C 8.242188 0.9375 4.234375 -4.046875 4.234375 -14.015625 L 4.234375 -47.78125 L 14.578125 -47.78125 L 14.578125 -15.421875 C 14.578125 -10.535156 16.363281 -8.09375 19.9375 -8.09375 C 24.332031 -8.09375 26.53125 -11.101562 26.53125 -17.125 Z M 26.53125 -17.125 "/></g></g></g><g fill="#ffffff" fill-opacity="1"><g transform="translate(220.591338, 101.020185)"><g><path d="M 20.21875 -14.578125 L 27.1875 -47.78125 L 37.0625 -47.78125 L 24.546875 4.046875 C 23.484375 8.117188 21.835938 11.046875 19.609375 12.828125 C 17.378906 14.617188 14.257812 15.515625 10.25 15.515625 C 7.675781 15.515625 5.609375 15.140625 4.046875 14.390625 L 4.046875 5.640625 C 5.546875 6.203125 7.144531 6.484375 8.84375 6.484375 C 10.46875 6.484375 11.71875 6.171875 12.59375 5.546875 C 13.476562 4.921875 14.171875 3.789062 14.671875 2.15625 L 14.859375 1.3125 L 1.59375 -47.78125 L 12.140625 -47.78125 Z M 20.21875 -14.578125 "/></g></g></g><g fill="#ffffff" fill-opacity="1"><g transform="translate(262.719999, 102.100251)"><g><path d="M 22.109375 0 L 5.640625 0 L 5.640625 -65.84375 L 22.109375 -65.84375 C 27.679688 -65.84375 31.816406 -64.460938 34.515625 -61.703125 C 37.210938 -58.941406 38.5625 -54.707031 38.5625 -49 L 38.5625 -16.9375 C 38.5625 -11.164062 37.210938 -6.898438 34.515625 -4.140625 C 31.816406 -1.378906 27.679688 0 22.109375 0 Z M 11.65625 -60.484375 L 11.65625 -5.359375 L 21.921875 -5.359375 C 25.679688 -5.359375 28.390625 -6.25 30.046875 -8.03125 C 31.710938 -9.820312 32.546875 -12.726562 32.546875 -16.75 L 32.546875 -49.1875 C 32.546875 -53.207031 31.710938 -56.09375 30.046875 -57.84375 C 28.390625 -59.601562 25.679688 -60.484375 21.921875 -60.484375 Z M 11.65625 -60.484375 "/></g></g></g><g fill="#ffffff" fill-opacity="1"><g transform="translate(305.984705, 102.100251)"><g><path d="M 34.984375 -31.703125 L 34.984375 -22.765625 L 10.25 -22.765625 L 10.25 -14.671875 C 10.25 -7.648438 13.382812 -4.140625 19.65625 -4.140625 C 26.050781 -4.140625 29.25 -7.554688 29.25 -14.390625 L 29.25 -14.953125 L 34.984375 -14.953125 L 34.984375 -14.578125 C 34.859375 -9.628906 33.476562 -5.804688 30.84375 -3.109375 C 28.21875 -0.410156 24.488281 0.9375 19.65625 0.9375 C 14.707031 0.9375 10.929688 -0.441406 8.328125 -3.203125 C 5.722656 -5.960938 4.421875 -9.941406 4.421875 -15.140625 L 4.421875 -31.703125 C 4.421875 -36.898438 5.722656 -40.878906 8.328125 -43.640625 C 10.929688 -46.398438 14.707031 -47.78125 19.65625 -47.78125 C 24.613281 -47.78125 28.40625 -46.398438 31.03125 -43.640625 C 33.664062 -40.878906 34.984375 -36.898438 34.984375 -31.703125 Z M 10.25 -32.359375 L 10.25 -27.5625 L 29.25 -27.5625 L 29.25 -32.359375 C 29.25 -39.253906 26.050781 -42.703125 19.65625 -42.703125 C 13.382812 -42.703125 10.25 -39.253906 10.25 -32.359375 Z M 10.25 -32.359375 "/></g></g></g><g fill="#ffffff" fill-opacity="1"><g transform="translate(345.016999, 102.100251)"><g><path d="M 22.765625 0 L 15.328125 0 L 2.25 -46.84375 L 8.28125 -46.84375 L 19.28125 -6.765625 L 30.1875 -46.84375 L 35.75 -46.84375 Z M 22.765625 0 "/></g></g></g><g fill="#ffffff" fill-opacity="1"><g transform="translate(383.014701, 102.100251)"><g><path d="M 34.984375 -31.703125 L 34.984375 -22.765625 L 10.25 -22.765625 L 10.25 -14.671875 C 10.25 -7.648438 13.382812 -4.140625 19.65625 -4.140625 C 26.050781 -4.140625 29.25 -7.554688 29.25 -14.390625 L 29.25 -14.953125 L 34.984375 -14.953125 L 34.984375 -14.578125 C 34.859375 -9.628906 33.476562 -5.804688 30.84375 -3.109375 C 28.21875 -0.410156 24.488281 0.9375 19.65625 0.9375 C 14.707031 0.9375 10.929688 -0.441406 8.328125 -3.203125 C 5.722656 -5.960938 4.421875 -9.941406 4.421875 -15.140625 L 4.421875 -31.703125 C 4.421875 -36.898438 5.722656 -40.878906 8.328125 -43.640625 C 10.929688 -46.398438 14.707031 -47.78125 19.65625 -47.78125 C 24.613281 -47.78125 28.40625 -46.398438 31.03125 -43.640625 C 33.664062 -40.878906 34.984375 -36.898438 34.984375 -31.703125 Z M 10.25 -32.359375 L 10.25 -27.5625 L 29.25 -27.5625 L 29.25 -32.359375 C 29.25 -39.253906 26.050781 -42.703125 19.65625 -42.703125 C 13.382812 -42.703125 10.25 -39.253906 10.25 -32.359375 Z M 10.25 -32.359375 "/></g></g></g><g fill="#ffffff" fill-opacity="1"><g transform="translate(422.046995, 102.100251)"><g><path d="M 11.375 0 L 5.546875 0 L 5.546875 -65.84375 L 11.375 -65.84375 Z M 11.375 0 "/></g></g></g><g fill="#ffffff" fill-opacity="1"><g transform="translate(438.882614, 102.100251)"><g><path d="M 19.65625 0.9375 C 14.707031 0.9375 10.929688 -0.457031 8.328125 -3.25 C 5.722656 -6.039062 4.421875 -10.035156 4.421875 -15.234375 L 4.421875 -31.703125 C 4.421875 -36.898438 5.722656 -40.878906 8.328125 -43.640625 C 10.929688 -46.398438 14.707031 -47.78125 19.65625 -47.78125 C 24.550781 -47.78125 28.296875 -46.398438 30.890625 -43.640625 C 33.492188 -40.878906 34.796875 -36.898438 34.796875 -31.703125 L 34.796875 -15.234375 C 34.796875 -10.035156 33.492188 -6.039062 30.890625 -3.25 C 28.296875 -0.457031 24.550781 0.9375 19.65625 0.9375 Z M 19.65625 -4.140625 C 22.726562 -4.140625 25.0625 -5.046875 26.65625 -6.859375 C 28.257812 -8.679688 29.0625 -11.253906 29.0625 -14.578125 L 29.0625 -32.265625 C 29.0625 -39.222656 25.925781 -42.703125 19.65625 -42.703125 C 13.382812 -42.703125 10.25 -39.222656 10.25 -32.265625 L 10.25 -14.578125 C 10.25 -7.617188 13.382812 -4.140625 19.65625 -4.140625 Z M 19.65625 -4.140625 "/></g></g></g><g fill="#ffffff" fill-opacity="1"><g transform="translate(478.008948, 102.100251)"><g><path d="M 23.515625 -47.78125 C 31.859375 -47.78125 36.03125 -42.984375 36.03125 -33.390625 L 36.03125 -13.546875 C 36.03125 -3.890625 31.859375 0.9375 23.515625 0.9375 C 17.867188 0.9375 13.820312 -1.378906 11.375 -6.015625 L 11.375 14.578125 L 5.546875 14.578125 L 5.546875 -46.84375 L 10.53125 -46.84375 L 10.625 -39.40625 C 13.007812 -44.988281 17.304688 -47.78125 23.515625 -47.78125 Z M 30.1875 -14.296875 L 30.1875 -32.640625 C 30.1875 -39.347656 27.429688 -42.703125 21.921875 -42.703125 C 18.660156 -42.703125 16.085938 -41.539062 14.203125 -39.21875 C 12.316406 -36.90625 11.375 -33.675781 11.375 -29.53125 L 11.375 -17.3125 C 11.375 -13.164062 12.316406 -9.929688 14.203125 -7.609375 C 16.085938 -5.296875 18.660156 -4.140625 21.921875 -4.140625 C 27.429688 -4.140625 30.1875 -7.523438 30.1875 -14.296875 Z M 30.1875 -14.296875 "/></g></g></g><g fill="#ffffff" fill-opacity="1"><g transform="translate(518.640147, 102.100251)"><g><path d="M 46.1875 -47.78125 C 54.019531 -47.78125 57.9375 -43.078125 57.9375 -33.671875 L 57.9375 0 L 52.109375 0 L 52.109375 -33.015625 C 52.109375 -39.472656 49.566406 -42.703125 44.484375 -42.703125 C 41.410156 -42.703125 38.992188 -41.539062 37.234375 -39.21875 C 35.484375 -36.90625 34.609375 -33.675781 34.609375 -29.53125 L 34.609375 0 L 28.78125 0 L 28.78125 -33.015625 C 28.78125 -39.472656 26.242188 -42.703125 21.171875 -42.703125 C 18.160156 -42.703125 15.773438 -41.539062 14.015625 -39.21875 C 12.253906 -36.90625 11.375 -33.675781 11.375 -29.53125 L 11.375 0 L 5.546875 0 L 5.546875 -46.84375 L 10.53125 -46.84375 L 10.625 -39.59375 C 12.882812 -45.050781 16.929688 -47.78125 22.765625 -47.78125 C 28.785156 -47.78125 32.515625 -44.988281 33.953125 -39.40625 C 36.148438 -44.988281 40.226562 -47.78125 46.1875 -47.78125 Z M 46.1875 -47.78125 "/></g></g></g><g fill="#ffffff" fill-opacity="1"><g transform="translate(581.656131, 102.100251)"><g><path d="M 34.984375 -31.703125 L 34.984375 -22.765625 L 10.25 -22.765625 L 10.25 -14.671875 C 10.25 -7.648438 13.382812 -4.140625 19.65625 -4.140625 C 26.050781 -4.140625 29.25 -7.554688 29.25 -14.390625 L 29.25 -14.953125 L 34.984375 -14.953125 L 34.984375 -14.578125 C 34.859375 -9.628906 33.476562 -5.804688 30.84375 -3.109375 C 28.21875 -0.410156 24.488281 0.9375 19.65625 0.9375 C 14.707031 0.9375 10.929688 -0.441406 8.328125 -3.203125 C 5.722656 -5.960938 4.421875 -9.941406 4.421875 -15.140625 L 4.421875 -31.703125 C 4.421875 -36.898438 5.722656 -40.878906 8.328125 -43.640625 C 10.929688 -46.398438 14.707031 -47.78125 19.65625 -47.78125 C 24.613281 -47.78125 28.40625 -46.398438 31.03125 -43.640625 C 33.664062 -40.878906 34.984375 -36.898438 34.984375 -31.703125 Z M 10.25 -32.359375 L 10.25 -27.5625 L 29.25 -27.5625 L 29.25 -32.359375 C 29.25 -39.253906 26.050781 -42.703125 19.65625 -42.703125 C 13.382812 -42.703125 10.25 -39.253906 10.25 -32.359375 Z M 10.25 -32.359375 "/></g></g></g><g fill="#ffffff" fill-opacity="1"><g transform="translate(620.688405, 102.100251)"><g><path d="M 23.328125 -47.78125 C 31.484375 -47.78125 35.5625 -42.984375 35.5625 -33.390625 L 35.5625 0 L 29.71875 0 L 29.71875 -32.546875 C 29.71875 -39.316406 27.054688 -42.703125 21.734375 -42.703125 C 18.535156 -42.703125 16.007812 -41.539062 14.15625 -39.21875 C 12.300781 -36.90625 11.375 -33.675781 11.375 -29.53125 L 11.375 0 L 5.546875 0 L 5.546875 -46.84375 L 10.53125 -46.84375 L 10.625 -39.59375 C 12.945312 -45.050781 17.179688 -47.78125 23.328125 -47.78125 Z M 23.328125 -47.78125 "/></g></g></g><g fill="#ffffff" fill-opacity="1"><g transform="translate(661.319604, 102.100251)"><g><path d="M 25.875 -46.84375 L 25.875 -41.953125 L 15.046875 -41.953125 L 15.046875 -11.09375 C 15.046875 -8.65625 15.5 -6.914062 16.40625 -5.875 C 17.320312 -4.84375 18.84375 -4.328125 20.96875 -4.328125 C 22.789062 -4.328125 24.425781 -4.640625 25.875 -5.265625 L 25.875 -0.1875 C 24.300781 0.5625 22.414062 0.9375 20.21875 0.9375 C 12.882812 0.9375 9.21875 -2.914062 9.21875 -10.625 L 9.21875 -41.953125 L 2.25 -41.953125 L 2.25 -46.84375 L 9.3125 -46.84375 L 9.96875 -60.578125 L 15.046875 -60.578125 L 15.046875 -46.84375 Z M 25.875 -46.84375 "/></g></g></g><g fill="#ffffff" fill-opacity="1"><g transform="translate(689.817888, 102.100251)"><g><path d="M 18.25 0.9375 C 13.539062 0.9375 9.882812 -0.21875 7.28125 -2.53125 C 4.6875 -4.851562 3.390625 -8.085938 3.390625 -12.234375 L 3.390625 -13.828125 L 8.9375 -13.828125 L 8.9375 -12.140625 C 8.9375 -9.503906 9.71875 -7.492188 11.28125 -6.109375 C 12.851562 -4.734375 15.082031 -4.046875 17.96875 -4.046875 C 23.988281 -4.046875 27 -6.804688 27 -12.328125 C 27 -13.953125 26.460938 -15.394531 25.390625 -16.65625 C 24.390625 -17.71875 23.367188 -18.515625 22.328125 -19.046875 C 21.296875 -19.578125 19.4375 -20.285156 16.75 -21.171875 C 13.101562 -22.484375 10.1875 -23.890625 8 -25.390625 C 5.300781 -27.523438 3.953125 -30.722656 3.953125 -34.984375 C 3.953125 -38.941406 5.203125 -42.0625 7.703125 -44.34375 C 10.210938 -46.632812 13.632812 -47.78125 17.96875 -47.78125 C 22.164062 -47.78125 25.519531 -46.648438 28.03125 -44.390625 C 30.539062 -42.140625 31.796875 -39.035156 31.796875 -35.078125 L 31.796875 -34.140625 L 26.34375 -34.140625 L 26.34375 -35.078125 C 26.34375 -37.523438 25.601562 -39.421875 24.125 -40.765625 C 22.65625 -42.117188 20.601562 -42.796875 17.96875 -42.796875 C 15.394531 -42.796875 13.351562 -42.117188 11.84375 -40.765625 C 10.34375 -39.421875 9.59375 -37.492188 9.59375 -34.984375 C 9.59375 -32.734375 10.34375 -30.992188 11.84375 -29.765625 C 13.351562 -28.546875 16.019531 -27.3125 19.84375 -26.0625 C 23.414062 -24.925781 26.269531 -23.515625 28.40625 -21.828125 C 31.226562 -19.941406 32.640625 -16.773438 32.640625 -12.328125 C 32.640625 -8.179688 31.367188 -4.929688 28.828125 -2.578125 C 26.285156 -0.234375 22.757812 0.9375 18.25 0.9375 Z M 18.25 0.9375 "/></g></g></g><g fill="#ffffff" fill-opacity="1"><g transform="translate(726.588417, 103.328266)"><g><path d="M 8.265625 0 L 4.140625 0 L 4.140625 -6.234375 L 8.265625 -6.234375 Z M 8.265625 0 "/></g></g></g><g fill="#ffffff" fill-opacity="1"><g transform="translate(740.141016, 103.328266)"><g><path d="M 3.0625 -10.125 L 3.0625 -21.515625 C 3.0625 -24.992188 3.941406 -27.664062 5.703125 -29.53125 C 7.460938 -31.394531 9.972656 -32.328125 13.234375 -32.328125 C 19.804688 -32.328125 23.140625 -28.785156 23.234375 -21.703125 L 23.234375 -21.125 L 19.46875 -21.125 L 19.46875 -21.953125 C 19.46875 -26.578125 17.390625 -28.890625 13.234375 -28.890625 C 9.078125 -28.890625 7 -26.578125 7 -21.953125 L 7 -9.734375 C 7 -5.109375 9.078125 -2.796875 13.234375 -2.796875 C 17.390625 -2.796875 19.46875 -5.109375 19.46875 -9.734375 L 19.46875 -11.265625 L 23.234375 -11.265625 L 23.234375 -10.125 C 23.234375 -6.644531 22.382812 -3.96875 20.6875 -2.09375 C 18.988281 -0.226562 16.503906 0.703125 13.234375 0.703125 C 9.921875 0.703125 7.394531 -0.226562 5.65625 -2.09375 C 3.925781 -3.96875 3.0625 -6.644531 3.0625 -10.125 Z M 3.0625 -10.125 "/></g></g></g><g fill="#ffffff" fill-opacity="1"><g transform="translate(767.055203, 103.328266)"><g><path d="M 13.296875 0.640625 C 9.941406 0.640625 7.382812 -0.300781 5.625 -2.1875 C 3.863281 -4.082031 2.984375 -6.789062 2.984375 -10.3125 L 2.984375 -21.453125 C 2.984375 -24.972656 3.863281 -27.664062 5.625 -29.53125 C 7.382812 -31.394531 9.941406 -32.328125 13.296875 -32.328125 C 16.609375 -32.328125 19.144531 -31.394531 20.90625 -29.53125 C 22.664062 -27.664062 23.546875 -24.972656 23.546875 -21.453125 L 23.546875 -10.3125 C 23.546875 -6.789062 22.664062 -4.082031 20.90625 -2.1875 C 19.144531 -0.300781 16.609375 0.640625 13.296875 0.640625 Z M 13.296875 -2.796875 C 15.378906 -2.796875 16.960938 -3.410156 18.046875 -4.640625 C 19.128906 -5.867188 19.671875 -7.609375 19.671875 -9.859375 L 19.671875 -21.828125 C 19.671875 -26.535156 17.546875 -28.890625 13.296875 -28.890625 C 9.054688 -28.890625 6.9375 -26.535156 6.9375 -21.828125 L 6.9375 -9.859375 C 6.9375 -5.148438 9.054688 -2.796875 13.296875 -2.796875 Z M 13.296875 -2.796875 "/></g></g></g><g fill="#ffffff" fill-opacity="1"><g transform="translate(794.796538, 103.328266)"><g><path d="M 31.25 -32.328125 C 36.550781 -32.328125 39.203125 -29.144531 39.203125 -22.78125 L 39.203125 0 L 35.25 0 L 35.25 -22.34375 C 35.25 -26.707031 33.535156 -28.890625 30.109375 -28.890625 C 28.023438 -28.890625 26.390625 -28.101562 25.203125 -26.53125 C 24.015625 -24.96875 23.421875 -22.785156 23.421875 -19.984375 L 23.421875 0 L 19.46875 0 L 19.46875 -22.34375 C 19.46875 -26.707031 17.75 -28.890625 14.3125 -28.890625 C 12.28125 -28.890625 10.671875 -28.101562 9.484375 -26.53125 C 8.296875 -24.96875 7.703125 -22.785156 7.703125 -19.984375 L 7.703125 0 L 3.75 0 L 3.75 -31.6875 L 7.125 -31.6875 L 7.1875 -26.796875 C 8.71875 -30.484375 11.457031 -32.328125 15.40625 -32.328125 C 19.476562 -32.328125 22 -30.441406 22.96875 -26.671875 C 24.457031 -30.441406 27.21875 -32.328125 31.25 -32.328125 Z M 31.25 -32.328125 "/></g></g></g><g fill="#ffffff" fill-opacity="1"><g transform="translate(9.552239, 117.646714)"><g><path d="M 45.875 -92.015625 C 42.84375 -91.835938 40.65625 -91.476562 39.3125 -90.9375 C 37.976562 -90.40625 37.066406 -89.378906 36.578125 -87.859375 C 36.085938 -86.347656 35.84375 -83.898438 35.84375 -80.515625 L 35.84375 -14.171875 C 35.84375 -10.785156 36.085938 -8.332031 36.578125 -6.8125 C 37.066406 -5.300781 37.976562 -4.273438 39.3125 -3.734375 C 40.65625 -3.203125 42.84375 -2.847656 45.875 -2.671875 L 45.875 0 C 41.0625 -0.269531 34.332031 -0.40625 25.6875 -0.40625 C 16.144531 -0.40625 9.097656 -0.269531 4.546875 0 L 4.546875 -2.671875 C 7.492188 -2.847656 9.65625 -3.203125 11.03125 -3.734375 C 12.414062 -4.273438 13.351562 -5.300781 13.84375 -6.8125 C 14.332031 -8.332031 14.578125 -10.785156 14.578125 -14.171875 L 14.578125 -80.515625 C 14.578125 -83.898438 14.332031 -86.347656 13.84375 -87.859375 C 13.351562 -89.378906 12.414062 -90.40625 11.03125 -90.9375 C 9.65625 -91.476562 7.492188 -91.835938 4.546875 -92.015625 L 4.546875 -94.6875 C 9.097656 -94.425781 16.144531 -94.296875 25.6875 -94.296875 C 34.332031 -94.296875 41.0625 -94.425781 45.875 -94.6875 Z M 45.875 -92.015625 "/></g></g></g><g fill="#ffffff" fill-opacity="1"><g transform="translate(65.520028, 117.646714)"><g><path d="M 45.875 -92.015625 C 42.84375 -91.835938 40.65625 -91.476562 39.3125 -90.9375 C 37.976562 -90.40625 37.066406 -89.378906 36.578125 -87.859375 C 36.085938 -86.347656 35.84375 -83.898438 35.84375 -80.515625 L 35.84375 -14.171875 C 35.84375 -10.785156 36.085938 -8.332031 36.578125 -6.8125 C 37.066406 -5.300781 37.976562 -4.273438 39.3125 -3.734375 C 40.65625 -3.203125 42.84375 -2.847656 45.875 -2.671875 L 45.875 0 C 41.0625 -0.269531 34.332031 -0.40625 25.6875 -0.40625 C 16.144531 -0.40625 9.097656 -0.269531 4.546875 0 L 4.546875 -2.671875 C 7.492188 -2.847656 9.65625 -3.203125 11.03125 -3.734375 C 12.414062 -4.273438 13.351562 -5.300781 13.84375 -6.8125 C 14.332031 -8.332031 14.578125 -10.785156 14.578125 -14.171875 L 14.578125 -80.515625 C 14.578125 -83.898438 14.332031 -86.347656 13.84375 -87.859375 C 13.351562 -89.378906 12.414062 -90.40625 11.03125 -90.9375 C 9.65625 -91.476562 7.492188 -91.835938 4.546875 -92.015625 L 4.546875 -94.6875 C 9.097656 -94.425781 16.144531 -94.296875 25.6875 -94.296875 C 34.332031 -94.296875 41.0625 -94.425781 45.875 -94.6875 Z M 45.875 -92.015625 "/></g></g></g><g clip-path="url(#295858013f)"><g clip-path="url(#f6b2dbce8d)"><g clip-path="url(#7270bfd819)"><path fill="#ffffff" d="M 38.953125 74.316406 L 81.976562 58.023438 L 85.089844 66.246094 L 42.066406 82.539062 Z M 38.953125 74.316406 " fill-opacity="1" fill-rule="nonzero"/></g></g></g></svg>