<svg xmlns="http://www.w3.org/2000/svg" version="1.1" xmlns:xlink="http://www.w3.org/1999/xlink" width="512" height="512" x="0" y="0" viewBox="0 0 24 24" style="enable-background:new 0 0 512 512" xml:space="preserve" class=""><g><path d="M0 7a1 1 0 0 1 1-1h17V2.639a.792.792 0 0 1 1.35-.552l4.418 4.361a.773.773 0 0 1 0 1.1l-4.418 4.365a.792.792 0 0 1-1.35-.552V8H1a1 1 0 0 1-1-1Zm23 9H6v-3.361a.792.792 0 0 0-1.35-.552L.232 16.448a.773.773 0 0 0 0 1.1l4.418 4.365A.792.792 0 0 0 6 21.361V18h17a1 1 0 0 0 0-2Z" fill="#ffffff" opacity="1" data-original="#000000" class=""></path></g></svg>