<svg xmlns="http://www.w3.org/2000/svg" xmlns:xlink="http://www.w3.org/1999/xlink" width="500" zoomAndPan="magnify" viewBox="0 0 375 374.999991" height="500" preserveAspectRatio="xMidYMid meet" version="1.0"><defs><clipPath id="51590fcb16"><path d="M 78 8 L 254 8 L 254 343 L 78 343 Z M 78 8 " clip-rule="nonzero"/></clipPath><clipPath id="afff5f75c1"><path d="M 307.832031 43.589844 L 185.855469 375.113281 L 67.605469 331.605469 L 189.582031 0.0820312 Z M 307.832031 43.589844 " clip-rule="nonzero"/></clipPath><clipPath id="2925fb8a68"><path d="M 307.832031 43.589844 L 185.855469 375.113281 L 67.605469 331.605469 L 189.582031 0.0820312 Z M 307.832031 43.589844 " clip-rule="nonzero"/></clipPath></defs><g clip-path="url(#51590fcb16)"><g clip-path="url(#afff5f75c1)"><g clip-path="url(#2925fb8a68)"><path fill="#000000" d="M 201.917969 10.824219 C 207.199219 7.039062 210.859375 9.601562 214.230469 12.386719 C 223.585938 20.042969 231.214844 29.085938 236.035156 40.363281 C 251.351562 76.285156 256.046875 113.878906 252.136719 152.4375 C 248.132812 191.96875 232.976562 226.863281 205.464844 255.878906 C 192.519531 269.523438 178.816406 282.476562 164.972656 296.207031 C 167 296.269531 169.503906 296.566406 172.019531 296.425781 C 189.117188 295.558594 192.390625 297.386719 199.910156 312.949219 C 201.601562 316.421875 202.648438 320.195312 204.367188 324.804688 C 200.640625 325.570312 197.976562 326.195312 195.28125 326.65625 C 166.3125 331.707031 137.238281 336.242188 108.414062 342.117188 C 101.421875 343.523438 97.144531 341.59375 93.152344 337.511719 C 85.136719 329.277344 81.191406 318.53125 78.339844 307.804688 C 77.34375 304.050781 80.074219 298.730469 82.226562 294.742188 C 98.09375 265.574219 111.132812 235.214844 120.070312 203.257812 C 122.847656 193.292969 124.109375 182.917969 126.257812 171.832031 C 129.769531 171.816406 132.492188 174.988281 134.722656 177.886719 C 145.179688 191.503906 152.683594 206.140625 148.777344 224.183594 C 146.917969 232.703125 145.148438 241.226562 143.210938 249.71875 C 142.355469 253.5 141.109375 257.199219 139.804688 261.796875 C 163.890625 251.863281 207.890625 185.449219 216.710938 146.796875 C 227.441406 99.792969 221.574219 54.402344 201.917969 10.824219 Z M 201.917969 10.824219 " fill-opacity="1" fill-rule="nonzero"/></g></g></g></svg>